<?xml version="1.0" encoding="utf-8"?>
<!-- Generator: Adobe Illustrator 26.2.1, SVG Export Plug-In . SVG Version: 6.00 Build 0)  -->
<svg version="1.1" id="Layer_1" xmlns="http://www.w3.org/2000/svg" xmlns:xlink="http://www.w3.org/1999/xlink" x="0px" y="0px"
	 viewBox="0 0 1080 529.7" style="enable-background:new 0 0 1080 529.7;" xml:space="preserve">
<style type="text/css">
	.st0{fill:#FFFFFF;}
	.st1{fill:#EB0000;}
</style>
<g id="Layer_1_00000149340668100920087090000011324804642024421546_">
	<g>
		<path d="M1077.6,310.8c-0.2-1.2,0.1-1-0.3-2.4c0.8-0.3,0.4-0.7,0.5-1.5c0.8-0.1,1.5,0,2.2,0.2c-0.3-1.4-1.3-0.4-2.3-0.6
			c0.1-0.5-0.9-0.7-0.5-2.4c-0.7-0.3-0.8,0.9-1.3,0.2c0.1-0.4,0.2-0.9,0.4-1.1c-3-0.5-5.2-1.5-7.9-1.5v-0.7c-1.8-0.6-3.6-0.9-5.5-1
			c-0.3-0.2-0.6-0.5-0.7-0.7c-0.9-0.2-0.9,0.2-1,0.5c-1.5-0.2-3.1-0.4-4.6-0.8v0.1c-3.9-0.6-7.9-1.1-12.2-1.7
			c0.5-0.2,1.1-0.3,1.9-0.2c-0.3-1.8-2.8-0.3-2.3,0.6c-1-1-2.7,0.1-4.7-0.2c0-0.5,0.4-0.6,0-1c-1.6-0.3-2.6-0.2-3.5,0.6
			c-1.7-0.4-2.7-1.1-4.3-0.4c0-0.3,0.1-0.5,0.2-0.6c-2.3-0.6-4.7,0.5-6.2-0.2c7-1,14.7,0.4,21.1,0.2c0.5,0.4-0.4,1.1,0.6,1.1
			c0.5-0.8,2.7-1.1,4.1-0.6c0,0.3-0.5,0.1-0.4,0.6c1.3,0.6,2.9-1,4.3-0.2c-0.1,0.5-1.3-0.1-1.2,0.6c1.4,0.9,2.8-1.9,3.9-0.6
			c-0.3,0.8-1.2-0.1-1.5,0.8c2.5,0.1,4.7,0.3,6.8-0.2c-1.2-0.4-2.6-0.4-3.5-1c0.9-0.6-0.5-1.6-0.8-2.3c0.1-0.5,1-0.7,0.4-1.3
			c-5.4-0.2-10.9-1.3-15.9-0.4c-9.9-0.4-28.6-0.7-38.9-1.3c-4.9-0.3-9.5,0.5-14.4,0c-12.9-1.3-25.9-1.1-38.8,0
			c-0.1-0.5-0.7-0.5-0.8-0.9c0.7,0.2,0.7-0.3,1-0.4c-0.5-1.5,1-1.4,1-2.7c-1.7-1.4,0.6-2.5,1.2-3.4c-0.8,0-0.4-1.3-0.8-1.7
			c-0.8,0.1-0.3,1.5-1.5,1.3c-0.1-1,0-1.2-0.4-2.1c2.8-4.1,3.7-10.1,6.8-13.9c-0.3-0.7,0.1-1.9,0.6-2.5c0.6,0.6,1.8,0.6,1.8,1.7
			c-0.3,0.7-0.3,1.7-0.4,2.5c0.8-0.1,1.8,0.2,2.3-0.2c0.2-1.5-0.9-1.6-1.2-2.5c-0.5-1.6,1-1.2,0.8-2.5c-0.8,0.2-0.8-0.8-1.7-1
			c-0.5,0.3,0.1,1.7-0.6,1.7c-0.3-0.8-1.2-1.3-1.4-2.1c-0.4-1.7,0.7-4,0.4-6.1c-0.2-1.8-1.1-3.1-0.8-5.7c0.2-2,0.1-4,0.2-5.5
			c0.2-2.8-0.1-5.4,0.8-7.8c0.4,6.5,0.8,8.6,1.2,15.4h1c-0.8-2.8-0.7-6.9-0.8-9.7h0.8c0-1.7-0.1-1.8-0.8-2.3
			c0.2-0.6,0.5,0.3,0.8-0.2c-0.1-0.9-1.3-0.6-1.2-1.7c0.3-0.4,0.8,0.3,1.2-0.2c0.3-2.2-1.4-3.5-1-5c0.6,0-0.2,1.4,0.6,1.1
			c-0.3-1.8-0.6-3.2,0-4.6c-0.5,0.1-0.8-0.1-0.8-0.4c0.1-7.4-1.6-18.4-1.7-30.3c0.2-0.5,1.3-0.1,1.2-0.9c0.5-1-0.7-1.5-1.2-2.5
			c0.3-0.3,1-0.1,1.2-0.4V194c-0.1-0.5-0.7,0.8-0.8-0.2c-0.3-1,0.7-0.8,0.6-1.7c-0.5-1.2,0.1-1.8,0.2-3c0-0.7-0.5-0.7-0.4-1.5
			c0.8-2-0.1-5.1-0.2-8.2c-0.1-3.4,1-7.1-0.4-9.5c0.3-0.2,0.9-0.2,0.8-0.8c-0.3-0.7-0.6-0.8-0.6-2.1c0.2-0.3,0.5-0.4,0.8-0.6
			c-0.4-1-0.6-2.1-0.2-3.4c0.7-0.1,0.5,0.6,1.2,0.4c0.2-0.5,0.5-0.8,0.4-1.5c-0.7-0.6-0.7,0.9-1.7,0.6c-0.1-2.2,0.4-3.9,1-5.9
			c-0.3,0-0.8,0.1-0.8-0.2c0-2.1-0.5-5.6,1.9-7.4c-0.4-0.8-1.4-1-1.7-1.9c0.9-0.5,0.5-1.4,0.4-2.5c0.3-0.3,1-0.1,1-0.6
			c-1.4,0.1-1.2-1.5-0.8-2.9c-0.9-0.5-0.9,1-1.2,0.4c0.1-0.4-0.2-1.2,0.2-1.3c0.3,0,0.2,0.5,0.6,0.4c0.1-1.2,1.6-2.4,0.8-3.2
			c-1.2,0.5-0.8,1.9-1.2,2.3c-0.6-1.1,0-1.7,0.2-2.9c-0.2,0-0.6,0-0.6-0.2c0-3.7,4.7-2.7,7-4c-0.1-0.7,0.3-2-0.6-1.9
			c-1.2,0.2-0.6,2.2-2.3,1.9c0.1-3.9,0-7.6-0.8-10.5h1.2c0.1-1.4,1.4-1.5,1.4-2.9c-1-0.1-0.8,0.9-1.2,1.3c-0.2-1-1.6,0-1.7-0.2
			c1.7-1.6,1.9-6-0.6-6.9c0.4,1.7,1.5,3.4,0.8,4.8c-0.8-0.8-1.7-1.5-1.7-3.2c-1.3,0.1-1.2-1.2-1.2-2.5c-1.6,0.5-1.4-0.8-2.1-1.2
			c-0.7,0.9,0.3,1.9,0.8,2.3c0-0.3,0-0.7,0.4-0.6c-0.6,1,0.9,2.6,0,3.2c-0.8-0.8-1.7-1.5-1.7-3.2c-1.5-0.2-1.3,1.4-2,1.9
			c-0.1-1.3-1-1.7-1.7-2.5c-1.6-2.8-2.3-6.5-4.1-9.1c-0.2-0.7,0.6-0.4,0.4-1.1c-2.6-2.8-4.1-6.6-6.6-9.5c0.7,0.1,1.2-0.1,1-0.8
			c-0.8-0.2-1,0.3-1.9,0.2c-0.8-0.3-1.9-1.9-0.6-2.5c-0.6-0.2-1.2-0.3-1.8-0.4c3.2-1.4,5.1-3.3,4-5.1c2.3-0.7,2.1-2.5,3.7-3.6
			c-0.9-0.6-1.1-1.6-0.9-2.7c-0.1-0.6,0.6-0.7,1.8-0.6c-0.4-0.7-1.6-1.1-2.3-1.7c4.1-2.1,1.3-4.2,3.2-6.5c-0.5-0.8-4.3-0.1-4.2-1.3
			c1.5-0.5,2,0.7,2.8-0.2c-0.9-0.3-4-1.4-1.9-1.7c-0.1-0.4-1.5-0.1-1.8-0.4c2-0.3,4.6-0.3,6,0.4c-0.4-1.6-3.2-2.1-6.9-2.1
			c0-0.6-0.4-1.3,1.4-1.1c0.2-0.9-2.1-0.7-3.2-1.1c3-2,1.1-3.5,3.7-5.7c-2.6-0.7,0.8-2.5-3.2-2.8c0.9-0.5,2.2-0.8,2.8-1.5
			c-0.5-0.6-2-0.8-1.8-1.3c0.9-0.8,1.6-0.9,2.3-1.5c-1-1.1-3-1.7-4.2-2.8c1.1,0.1,1.7,0,1.8-0.4c0.1-0.7-0.8-0.9-0.5-1.7
			c-0.9-0.4-2.8,0.8-3.2-0.4c-0.4-0.9,3,0,2.8-0.8c-0.6-1.4-2.4-1.2-2.8-2.5c1.6-0.6,4.7-0.7,6-0.8c-0.6-0.4-2.8-0.1-3.7-0.4
			c1.1-0.7,5.1-1,6.9-0.6c0.2-0.7-0.8-1,2.3-1c-1.7-0.6-4.8-0.6-7.9-0.6c0.4-0.8,3.6-0.3,4.6-0.8c0-0.8-3-0.2-3.7-0.6
			c0.1-0.4,2,0,1.8-0.6c0-0.5-1.5-0.4-2.8-0.4c1-0.2,1.2-0.7,2.8-0.6c-1.2-0.7-2.3-1.3-4.6-1.5c0.1-0.4,2,0,1.8-0.6
			c-0.3-1-0.9-1-3.2-0.8c-0.5-0.7,1.4-0.3,2.3-0.4c0.4-1-1.6-1-2.3-1.5c2.4-1.1,7.7-0.8,9.7-2.1c-0.5-0.5-2.9-0.1-4.2-0.2
			c0.1-0.5,2-0.1,2.3-0.4c-0.1-0.6-1.9-0.4-3.2-0.4c0.1-0.3,1.4-0.1,1.4-0.4c-0.2-0.5-2.3-0.1-3.2-0.2c-1.7-0.5,2.6,0.1,2.3-0.4
			c-2.6-0.2-1.8-1.6-5.1-1c-0.5-0.7,1.4-0.3,2.3-0.4c0.4-1-1.6-1-2.3-1.5c0.4-0.6,2.8-0.2,3.7-0.6c0.2-0.4-0.4-0.4-0.9-0.4
			c1.7-0.6,7,0.4,6.9-1.1c-1.1-0.5-4.1-0.1-6-0.2c-1.2-0.5,3.8,0.1,4.2-0.4c-0.1-0.6-1.9-0.4-3.2-0.4c0.1-0.3,1.4-0.1,1.4-0.4
			c-0.2-0.5-2.3-0.1-3.2-0.2c-1.7-0.5,2.6,0.1,2.3-0.4c-4.2-0.5-3.7-0.6-3-0.6c-0.4,0-1,0-1.9-0.1c1.2-0.7,3.9-0.8,4.6-1.7
			c-4,0.5,0-0.1-4.5,0c0.1-0.9-4.6-0.6-2.9-0.8c-0.5-0.6-1.6-1.2,0-1.7c-0.9-0.4,6.2-0.9,4.8-1.1c1.9-0.8,0.8-0.8,0.9-2.1
			c-0.4-0.6-1.5,0.3-2.8,0c-0.6-1.6,0.1-1.3-0.5-2.8c-3.9,0.5-8.4-0.1-12.5-0.2c4.8-0.4,7.8-0.2,12.5-0.4c-0.1-1.8-3.1-2.9-3.7-3.8
			c-2.4,0.1-1.2,1.3-1.4,1.5c-3.5,0.2-5.1-0.7-7.8-0.2c-0.4-0.4-1.1-0.6-1.4-1c-6.8-0.1-13.7-0.3-20.8-0.6
			C893.9,1.1,879,2.3,871,0.9c-2.7,0.6-5.8-0.3-7.8,0.4c-2-1.3-13.5-0.4-16.6-1.3h-4.2c-2.2,0.3-7.5,0.3-9.7,0h-1.4
			c-0.3,0.2-0.7,0.6,0,0.6c-3.9,1-9.6-0.3-14.8,0.4c-2.2,0.1,0.6-0.8-1.4-0.8c-0.8,0-1,0.3-1.9,0.2c-0.2,0.4,0.4,0.4,0.9,0.4
			C812,1,808,1.4,806.8,0.5c-1.3,0.2-0.3,0.7-0.9,0.9c-4.3,0.2-7.2-0.4-10.6-0.4c-1.7,0,0,0.8-0.9,0.8c-4,0-6.8-0.9-10.6-0.6
			c-3,0.2-8.8,2-12,0.2c-5,0.4-12.2,0.8-17.1,0.4c-1.5,0.7-2.9,0-6.5,0.2c2.2-0.5,7-0.4,12-0.4c-15.5-0.7-31.7-0.7-44.3-0.2
			c0.6,0.7,5.2-0.4,5.1,0.6c-6.7-0.2-14.2,0-18.9-0.4c0.1-0.2,0.9-0.1,0.9-0.4c-5.4,1.6-13.8,0-18.9,1.1c0.8-0.2,1.5-0.7,0-0.9
			c-1.1,0.9-3.9,1-6.9,1.1c-0.2-0.5,0.9-0.3,0.9-0.6c-1.3-0.5-2.9,0.7-4.6,0.6c-0.4-0.6-4.4-0.4-7.4-0.4c-0.2,0.5,0.7,0.4,1.4,0.4
			c-0.1,0.5-2,0.1-2.8,0.2c0.1-0.2,0.9-0.1,0.9-0.4c-4.8-0.4-9.7-0.6-12.9,0.4c0.3-1.3-4.1-0.4-6-0.6c-1.3,0.2,0.7,0.6-0.5,0.8
			c-4.9-1.3-16.2-0.3-19.8-0.8c-1.5-0.1-0.2,1-1.8,0.8C618,2.3,606,3,593.9,2.7c3.7-1-2.8-0.6-4.2-1.5c-2.8,1.3-7.4-0.6-11.1,0.2
			c-0.6,0.7,1.5,0.2,0.9,0.9c-14.8,0.7-32.7-0.5-44.8,1c-10.4-0.5-20.8,0.1-31.4,0.4c-40.1,1.1-80,0.3-124.6,1.1
			c-30,0.6-61.3,0.8-91.9,0.2c-35.8-0.7-70.9,0.7-104.3,1.3c-23.9,0.4-48.9-1.2-70.6,1.3c-6.9,2-3.2,2-8.5,4.9
			c0.5,2.2-2.7,2.4-0.9,4c-2.2,0.7-2.1,2.5-3.7,3.6c0.9,0.6,1.1,1.6,0.9,2.8c0.1,0.6-0.6,0.7-1.8,0.6c0.4,0.7,1.6,1.1,2.3,1.7
			c-4.1,2.1-1.2,4.2-3.2,6.5c0.5,0.8,4.3,0.1,4.2,1.3c-1.5,0.5-2-0.7-2.8,0.2c0.9,0.3,4,1.3,1.8,1.7c0.1,0.4,1.6,0.1,1.8,0.4
			c-2,0.3-4.6,0.3-6-0.4c0.4,1.6,3.2,2.1,6.9,2.1c0,0.6,0.4,1.3-1.4,1.1c-0.2,0.9,2.1,0.7,3.2,1c-3,2-1.1,3.5-3.7,5.7
			c2.6,0.7-0.8,2.5,3.2,2.7c-0.9,0.5-2.2,0.8-2.8,1.5c0.5,0.6,2,0.8,1.9,1.3c-0.9,0.8-1.6,0.9-2.3,1.5c1,1.1,3,1.7,4.2,2.7
			c-1.1,0-1.7,0-1.8,0.4c-0.1,0.7,0.8,0.9,0.4,1.7c0.9,0.4,2.8-0.8,3.2,0.4c0.4,0.9-3.1,0-2.8,0.8c0.6,1.4,2.4,1.2,2.8,2.5
			c-1.6,0.6-4.7,0.7-6,0.9c0.6,0.4,2.8,0.1,3.7,0.4c-1.1,0.7-5.1,1-6.9,0.6c-0.2,0.7,0.8,1-2.3,1c1.7,0.7,4.8,0.6,7.9,0.6
			c-0.4,0.8-3.6,0.3-4.6,0.9c0,0.8,3,0.2,3.7,0.6c-0.1,0.4-2,0.1-1.8,0.6c0.1,0.5,1.6,0.4,2.8,0.4c-1,0.2-1.2,0.7-2.8,0.6
			c1.2,0.7,2.3,1.3,4.6,1.5c-0.1,0.4-2.1,0-1.8,0.6c0.3,1.1,0.9,1,3.2,0.8c0.5,0.7-1.4,0.3-2.3,0.4c-0.4,1,1.6,1,2.3,1.5
			c-2.4,1.1-7.7,0.8-9.7,2.1c0.5,0.5,2.9,0.1,4.2,0.2c-0.1,0.4-2,0.1-2.3,0.4c0.1,0.6,1.9,0.4,3.2,0.4c-0.1,0.2-0.8,0.2-1.4,0.2
			c-0.4,0.8,2.2,0.3,3.2,0.4c1.7,0.5-2.6-0.1-2.3,0.4c2.6,0.2,1.8,1.7,5.1,1.1c0.5,0.7-1.4,0.3-2.3,0.4c-0.4,1,1.6,1,2.3,1.5
			c-0.4,0.6-2.8,0.2-3.7,0.6c-0.2,0.4,0.4,0.4,0.9,0.4c-1.7,0.6-7-0.4-6.9,1.1c1.1,0.5,4.1,0.1,6,0.2c1.2,0.5-3.8-0.1-4.2,0.4
			c0.1,0.6,1.9,0.4,3.2,0.4c-0.1,0.3-1.4,0.1-1.4,0.4c0.2,0.5,2.3,0.1,3.2,0.2c1.7,0.4-2.6-0.1-2.3,0.4c8.4,0.9,4,0.4,10.8,0.6
			c-1.2,0.7-3.9,0.7-4.6,1.7c2-0.3,3.9-0.2,5.9-0.2c-0.3,1.5,0.3,3.1-0.2,4.4c-0.3-0.7-1.3-0.4-1.2,0.4c0.4,0.6,1.3-0.3,1.4,0.2
			c0.1,1.1-1.4,0.6-1.6,1.3c-0.1,0.9,1.1,0.6,1.4,1.1c-0.3,1.8,0.2,3.2-0.2,4.6c-0.7-0.6-0.3-2.4-1.7-2.3c-1.3,1.5,0.7,2.9,0.2,4.8
			c-0.4,0.1-0.4,0.6-1,0.4c0.1,1.1-0.2,1.7-0.6,2.3c-0.4-0.8-0.1-2.3-0.2-3.4c-1.9,0.1-1.2-2.3-2.5-2.7h-0.6c-0.9,2,1,2.9,0.6,5
			c-1.4,1.2-2.2,3.7-1.9,6.1c-0.3,0.4-1.5,0-1.8,0.4v1.3c0.8,0.1,1.2,0.6,2.3,0.4c1.1,5.7,0.3,12.1,0.6,18.5c0.4,0.5,0.8,1,1,1.7
			c-0.5,0-0.8,0.3-0.8,0.9c-0.3,5,0,11,0,16.4c0.7,0.2,0.9,0.2,1.8,0.4c1.8-2.1-0.3-5.1,1.1-6.7c0.7,3.4,0.4,7.9,0.6,11.1
			c-0.1-1.3-1.7-2.5-1.4-2.9c-1.6,0.2-2.8,2.5-1.6,4.2c-0.1,1.7-1.1,4.2,0.2,5.3c0.8,0.1-0.1-1.5,0.8-1.3c0.3,1-0.2,2.2-1.4,1.7v2.3
			c0.6,1.1,2.3,0.4,2.7,0.9c0,0.2,0.2,0.2,0.2,0.4c-0.8,0.8-1.2-0.1-2.5,0c0,2-0.1,4.7-0.4,7.2c1,0.2,1.5,1.6,2.9,0.9
			c-0.2,0.7,0.3,0.8,0.2,1.5c-0.7-0.4-0.9-0.4-1.7-0.2c-0.2,0.6-0.2,0.9,0,1.5c0.6,0.4,1.1-0.4,1.7,0c-0.1,0.7,0.4,0.8,0,1.2
			c-0.4-0.2-1.1-1-1.7-0.4c0.3,2.1-0.3,4.5,1.2,6.1c0,0.4-0.7,0.1-1,0.2c0.4,1.8-0.3,2.3-0.6,3.8c1.1,0.3,3.1,0.8,3.1,3
			c-0.8-0.4-0.9-1.3-1.9-1.5c-0.7,1.9,1,2.6,0,3.8c0-1.2-0.3-2.1-1-2.5c-0.6,1.5-0.1,3.7,0.8,4.4c-0.6,0.4-0.9,1-1,1.9
			c1,0.9,2.9,1,3.7,1.5c-0.7,2.1,0.2,4.5-0.8,6.3c-0.1-1.2-0.1-2.7-1-3.2c-1.1,1.1-0.3,2.8,0,4.6c0.1,0.4,1.1-0.1,1.2,0.4
			c0.2,3.4,0.3,7.1,0,10.5c-0.2-0.4-1.8-1.2-1.9,0c0,0.9,1.5,0.6,2.1,0.4c0.2,1.3,0.7,3-0.2,4c-0.8-0.7,0-2.1-0.4-2.9
			c-2.2-0.4-1.4,2.8-0.8,3.6c0.7,0.3,0.9-0.9,1.2-0.2c0.6,2.6,0,5.3-1.4,6.3c0.6,1.9-0.5,4.2,0.6,5.5c-0.4,1.9-1,4.8,0.8,6.5
			c-0.1,1,0.3,2.5-0.2,3.1c-1.8,0.1,0.7-2.4-1-2.7c-0.3,1.7-0.3,2.8-0.2,4.4c0.3,0.5,1.6-0.1,1.7,0.6c-0.2,2.1,0.9,5.1,0,6.5
			c0.1-1.5-0.1-2.6-0.8-3.2c0.7-0.6,0.7-2.9-0.6-2.7c-1.1,2-0.1,4.6,0,7.8c-1.5,2.2-0.2,13.8-0.6,17c-0.1,0.9-0.6,1.5-0.6,2.3
			c0,3.2,1,7.6,0,10.5c-0.1,0.4-1.2,0.5-0.6,1.3c1.2,0.1,0.9,1.6,1.2,2.5c-0.4,0.4-0.8,0.5-1.4,0.2c-0.4,0.3-0.8,3.7-0.8,1.5
			c-6.7,0.7-13.1,3.2-19.2,4.5c-0.3-0.1-0.5-0.3-0.8-0.4c-0.9,0.5-7.6,1.6-8.3,0.4c0.2-0.6,1.8,0.3,1.7-0.6
			c-1.2-0.7-1.7,0.6-3.1,0.4c-0.3,0.6,1.1,0.5,0.4,0.8h-1.9c-3.5,3.1-13.9-3.5-17.2-0.2c-1.8-0.7-5.8,0.8-6.9,1.5
			c-1-0.1-1.7,0.1-2.5,0.2c-0.4-0.5-1-2.4-2.1-2.2c-3-3-2.3-1.8-13.2,1c-2.2,0.6-4.1,0.4-5.8,0.9c-0.8,0.7-1.6,1.4-3.1,1.5v-1.9
			c-2.7,1-0.3,2.3-2.3,4c-1.1-0.2-3.4,0.2-5.9,0c-0.5-1.3-1.7-1.8-1.2-4c-0.6-0.9-1.3-1.8-2.1-2.5c0.1,2.2,0.6,3.6,0.4,6.5
			c-1.3,0.9-2.7,0.5-3.7,0.4c-2.3-0.2-5,1.7-6.6,0c-0.8,1-3.3,0.3-3.7,1.7c1.4,0.7,1.7,0.4,3.1,0c0.1,0.5-0.4,0.5-0.2,1
			c2.9,0.5,5.8,0.1,8.2,0.4c-0.9,0.9,0.6,1.8,0.8,2.7c-2.2,1.9-6.2,1.2-10.3,1.5c0.1,0.5,0.5,0.7,0.6,1.3c3.4-0.5,7,0,10.1,0.8
			c0.4,1.1-0.5,1.1-0.8,1.9c0.1,2.4,0.1,3.3,0,5.9c-0.2,0.8-1.3,0.7-1.2,1.7c1.4,0.8,1.1,2.1,1.2,3.6c-1.3,2.5,0.6,5.6,0,9.3
			c-0.1,0.5-0.7,0.4-0.6,1c0.2,0.2,0.8,0.1,0.6,0.6c-1.1,3.8-0.1,7.5-0.6,11.8c0.1,0.4,0.4,0.6,0.6,0.9c-1.4,2.3,0,5.2-0.4,7.8
			c-0.1,0.6-0.6,1-0.6,1.7c-0.3,3.2,0.8,6.6-0.4,9c0.2,0.2,0.8,0.1,0.6,0.6c-1.2,4-0.8,6.5,0,10.1c-1.3,1.4,0.6,5.8-1,7.8
			c0.2,0.4,0.5,0.7,0.6,1.3c-1.1,2.4,0.1,3.5-0.4,6.3c0.3,0,0.8-0.1,0.8,0.2c-0.7,1.6-0.4,3-1,4.8c0.1,0.6,0.9,0.5,1,1
			c-0.7,3.5-0.1,7.1-0.6,11.2c0.3,0.6,0.8-0.4,1,0.2c0.5,1.4-0.6,1.5-0.8,2.8c0.7,0.8,0.3,2.7,0,4c0.9,4.6,0.5,8.8,1.4,12.2
			c-0.1,0.5-0.6,0.6-0.6,1.2c0.8,0.1,0.1,1.6,0.8,1.7c-0.2,0.4-1.1,0.1-0.8,1.1c-0.1,0.6,1.2-0.2,0.8,0.6c0.4,1.3-1,0.6-0.8,1.7
			c0.4,0.6,1.7,0.4,2.1,1.1c-0.1,3.6-1.5,6.8-0.8,10.3c-0.7,5.1-0.7,9.2-1.2,13.9c-0.8,1.9-0.4,4.2-0.8,6.7c0.1,0.6-0.8,0.2-0.6,0.9
			c0.3,0,0.8-0.1,0.8,0.2c-1.3,1.5,0.1,5.9-1.9,8c0.8,4.7,0.2,6.7-0.8,12.4c0.5,3.8,1.5,9.7,2.3,13.3c-1.1,0,0-2.2-1.2-2.1
			c-0.2,4.1,1,7.4,1.9,11.2c-1.4-1.4-0.9,2.5-2.3,2.5c0.1-0.6-0.3-0.7-0.8-0.6c0.1,0.9-0.4,1.2-0.2,2.1c1.5-0.3,0.2,1,0.8,1.5
			c0.8,0,0.6-1,1-1.5c0.3,0,0.2,0.5,0.2,0.8c1.2-1,2.1-0.3,3.5-0.4c0.5-0.3,0.2-1.4,0.8-1.5c0.5,0.9,2.2,0.7,2.7,1.7
			c0.5,1.6-0.8,1.5-0.8,2.5c2,0.9,2.9,0.1,5.2,0.6c-0.8,0.8-1.3,3.1-0.1,4c1.2-1.6,1.1-6.1,3.8-3.6c-0.3,0.3-0.3,0.8,0,1
			c1.6,0.5,2.9,1.3,5.1,1.1v-1.7h1.2c0-0.8,0.3-1.2,0.8-1.5c3-1.4,7.4,0.6,11.6,0.6c3.1,0,6.3-0.3,9.3,0c3,0.3,2.9,1.7,5.8,1.2
			c1.3,0.7,3.7,0.9,5.6,0.4c5.5,0.8,9.8,1.5,15.7,1.7c0-0.4-0.2-1.1,0.4-0.8c0.5,0.2-0.3,0.8,0,1.5c1.3-0.7,1.1-2,2.3-2.8
			c1.4-0.8,3.7-0.2,4.3-2.3c2.9,0.3,5.6-1,7.8,0.2c-0.7,0.7-2.4,0.2-3.1,0.8v1c0.6,0.8,1.7-0.2,2.1,0.6c-0.1,1.8-3.3,0.3-4.3,1
			c0.6,1.9-3.4,1-2.5,3.2c2.2,0.4,2.8-0.9,4.9-0.6c1.1,1.5,4,2,6,1.9c0.4,0.3,0,1.6,0.4,1.9c1.8,0.3,1.3-1.6,1.9-2.5
			c5.8-0.8,11.8-0.1,17.9-0.4c0.5-0.2,0.7-0.8,1.4-0.8c0.6,0.1,0.5,0.9,1.2,0.8c5,0,10.1-0.1,15.9,0c-0.3-1.1,0.6-1.1,0.4-2.1
			c-1.7-1.5-4.6,0.2-6.4-0.8c1.8-1,4.6-0.4,7-0.4c1.4,0,2.7-0.8,3.7-0.2c-1.2,0.6-2.8,0.6-2.7,2.1c0.2,2.3,7,1.2,9.1,1
			c0.1-0.8-1.2-0.3-1.2-1c0.9-0.4,2.3,0.2,1.6,1.5h2.3c0.2-0.8,0.8-1,0.8-1.9c-0.4-0.6-0.8,0.8-1.2,0c0.3-0.5,0.9-0.8,1.6-0.8
			c0.1,0.3,0.3,0.3,0.4,0.6c-0.2,0.7-0.9,0.9-0.4,1.7c2,0.2,4.5-0.1,6.6,0.6c0.6-1,2-1.5,1.2-3.2h1.4c-0.5,0.4-0.5,1.3,0,1.7
			c0.6,0.2,0.8-0.2,1.2-0.2c0.1-0.7-0.1-1-0.2-1.5c0.5-0.1,0.8-0.3,1.4-0.2c-0.2,0.5-0.7,0.8-0.6,1.7c2.3-0.1,4.9,0.2,6.2-1.3
			c0.3,0.3,0.1,1,0.4,1.3c1.6-1,2.3,0.7,3.5,0.4c0.1-1,1.2-3.4,2.7-3c-0.3,0.7-1.4,1.3-1,1.9c0.5,0.1,1.5-0.3,1.6,0.2
			c-0.1,0.4-0.8,0.2-0.6,0.9c1.9,0.3,3.1,0.1,4.3-0.6c0.5,0.4,1,0.8,2.1,0.6c0.3-1.4,1.1-2.4,1-3.6c2,0.9,5.4-0.6,6.2,1.1
			c-1.1-0.3-2.5-0.2-2.9,0.8c0.9,1.1,2.8,0.3,4.5,0c0-0.6-0.1-1.2,0.4-1.3c3.4-0.2,7.3-0.2,10.1,0c-0.1,0.8-0.9,1-0.4,1.9h1
			c0.1-1,0.2-1.2,0-2.1c1.4,0.1,3.2-1,3.7,0.4c-0.8,0.7-1.8,0-2.7,0.4v1c0.9,0.4,2.6,0.2,3.3-0.2c0.5-0.4-0.5-1.1,0-1.5
			c3-0.5,4.8,0.2,6.2,1.5c4.4-0.8,7.9,1.1,11.6-1.3c1,0.1,2.6-0.3,3.3,0.2c0.1,0.7-0.6,0.5-0.4,1.2c0.7,0.4,1.4,0,2.1-0.2
			c0.4-0.3-0.1-1.5,0.6-1.5c2.4,0.1,4.6-0.8,6.4,0c-1.6-0.2-2.5,0.3-3.3,0.8c-0.4-0.6-2.6-0.8-2.5,0.4c0.6,1.6,2.1-0.1,3.3,0.8
			c0.8-0.8,3-0.1,4.1-0.6c0.6,0.2,0.9,0.8,1.6,0.8c7.7-0.1,12.6,0.2,20.6,0.4c0.5,0.1,0.2,0.9,0.8,0.8c1.3-0.2,1.6-1.5,3.3-1.3
			c0.7,0.4,0,1.2,0.4,1.7c9.6,0.6,29.9,1.1,39,0.6c0.1-0.6-0.3-1.7,0.2-1.9v2.1c1.1,0.1,1.3-0.6,2.5-0.4v-1.2
			c0.5,0.1,0.4,0.8,1.2,0.6c10-3.1,18.7-7.5,26.8-12.6c1.3-0.8,2.9,0.4,4.3,0.2c1-0.1,1.5-1.1,2.5-1.5c2-0.7,4.5-0.2,4.7,1.5h1.9
			c0.4,0.5,0.6,1.2,1,1.7h1.9c0-0.3-0.1-0.8,0.2-0.9c3.8-0.6,6.6,0,10.3-0.4c2-0.2,3.7-1.7,4.7-1.7c0.5,0,1.2,0.8,1.9,0.8
			c1.4,0.1,2.3-0.7,3.5-0.4c0.2,0.8-0.8,0.9-0.2,1.5c1.9,0,2.5,0,2.7,0c0,0,0.2-0.1,2.2-0.4c0.6,0.1,0.6,0.8,1.4,0.6
			c2-1.3,5.4-0.1,8.7-0.4c0.6-0.6,2.1-1.6,2.7-0.4c-0.6,0.1-1.7-0.4-1.4,0.6c5.8,0.6,10.1,1.1,16.1,1c0.6-0.3,1.1-1.8,2.1-1
			c-0.2,0.5-1.3,0.2-1,1.3c1.9-0.5,5-0.6,7.8-0.2c0,0.4,0,0.7,0.2,0.8c2.4-0.2,3.9-1.3,5.4-1.9c-0.2,0.7-1.1,0.7-1.2,1.5
			c0.8,0.9,2.3-0.2,2.9,0.8c1.8-0.9,5-1.8,7.2-2.1c0,0.9-1.1,0.7-1.2,1.5c1.5,0.6,2.8,1.5,4.3,0.4c0.4,0.1,0.2,0.8,0.8,0.6
			c1.3-1.2,3.9-0.5,5,0.2c2.4-1.9,7.7,1.7,9.9-0.6c-1.7-2.4-4.4,0.3-6-2.1c2.7-0.5,6.2,1.6,7.8-0.4c1.2,0.7,3.1-0.5,3.7,0.6
			c1.4-2.1,3.3,0.2,5.2-1c0.6,1,1.8,0.9,2.7,0.2c0.7,0.2,0.9,0.9,1.9,0.8c0.4-0.3,0.4-1,1-1c3-0.3,5.1,0.2,8.5-0.4
			c0.3,0.2,0.6,0.3,0.8,0.6c2.2-1.4,4.7,0.9,7.9,0.2c0.4,0.6,1.4,0.5,2.1,0.8c0,0.4-0.6,0.3-0.4,0.8c1.1,0,2.3,0.4,2.9-0.4
			c-0.6,0-1.4,0.2-1.5-0.4c1.8,0,2.3,0.3,3.7-0.6c-0.2,0.8,0.8,0.5,0.8,1c-0.2,0.6-1.2,0.4-1.2,1.3c0.6,0,1.5,0.1,1.9-0.2
			c0.5-0.5,0.6-1.3,1.4-1.5c0.6,0.4,0.8,1.3,1.6,1.5c1.5-0.2,3.5-1.7,4.7-0.8c-0.2,0.4-0.9,0.3-0.8,1c1.9,0,3,0.4,3.9-0.6
			c4.6,0.6,9,0.5,13.6,1.2c0.5,1.1-1,0.2-0.8,1c1.8,0.2,3.9,0.1,5,1.1c2.3-1.2,4.6,0.5,6.8,0.6c2.1,0.2,4.2-1,6.2,0
			c0.4-0.2,0.5-0.6,1.2-0.4c1.1,0.7,1.9,0,2.9,0c2.8,0,5.9,1.8,8.7,0.4c0.3,0.4,1.2,0.1,1.2,0.8c-0.2,0.8-1.7,0.3-2.5,0.4
			c0.9,2.9,5.2,0.5,7.2,1.7c0.6,0.2-0.1-1,0.4-0.8c1.1,0.7,1.4-0.2,2.7,0.4c1.2-2.6,4.6-1.3,7.6-2.1c0.2-0.1,0.4-0.5,0.6-0.6
			c2-0.8,3.8-0.6,5.6-1.1c2.5,1.5,5.2-1.8,7,0c1.5-0.9,3.4,1,5-0.6c0.8,1.8,3.4,1.3,5.3,1c1.1,0.9,1.8-0.1,2.7,1.1
			c0.1-1.3,2.3-0.8,3.1-0.4c0.5,1.3-0.9,0.8-0.8,1.7c0.4,0.4,1,0.1,1.4,0c-0.1,0.5,0,0.8,0.2,1.1c0.6,0.3,1.1-0.6,1.2,0
			c-1.1,0.3,0.4,3.2-1.2,3c1.1,1.2-0.3,4.4,1,5.7c0.5-0.9-0.3-3.1,0.8-3.4c0.5,1.4-0.8,4.6,0.6,5.5c0-3.2,0.8-2.1,1.8-3.4
			c0.9,0.6-0.3,3.2,1,3.4c0.4-0.2-0.1-1.1-0.2-1.5c0.3-0.3,1-0.1,1.2-0.4c-0.7-2,0.8-2.2,0.8-4c0.5,0,1,0,1.2-0.2
			c0.3-2-1.1-3.4,0.2-4.6c1.5,0.6,2.8,1.3,4.5,1.7c0.3-1.1-0.9-3.2,0.6-3.8c-0.8-1.3,0.2-1.9,0-3.6c2,0.1,3.4-0.9,4.3,0
			c0.5-0.3,0.2-1.3,1-1.3c-0.1,0.7,0.2,1,0.6,0.6c0.5-0.9,0,2.1,1.6,2.4c0-0.5,0.1-2.4,0.5-2.1c0.4,0.1,0.6,0,0.8-0.1
			c-0.1,0.5-0.2,0.8-0.2,0.8v1c0.2,0,0.4-0.9,0.5-1.9c-0.1,0-0.2,0.1-0.3,0.1c0.2-1.2,0.4-3.5,0.6-3.5c-0.1,0.3-0.2,2-0.3,3.4
			c0.3-0.2,0.7-0.4,1.3-0.2c1.4-1.8-0.6-3.5,0-5.3c0.5,0.1,0.3,0.9,1.2,0.6c0.3-1.6,0-2.9,0.2-4.8c0.4-0.3,1.2,0.3,1-0.9
			c-0.1-0.9-1.1,0.3-1.2-0.6c0.1-0.9,1.4-0.4,1.5-1.3c0.4-1.2-1.2-0.5-1.2-1.3c-0.1-2.8,0.1-5.3,1-6.9c1.1,0.5,0.7,2.6,0.8,4.2
			c1.9-0.1,0.9,2.6,2.7,2.5c0.9-2.1-1.3-3.9,0-5.3c0.5,0.4,0.4,1.4,1.4,1.3c0.5-2.2-0.2-4.2-0.2-6.3c0.6-0.4,2,0,1.9-1
			c-1.7-1.3,0.4-3.5-0.4-5.7c0.6-0.6,1.3,0,1.8-0.6c0.3-1.8-1.3-1.6-2.3-2.1c-1.2-8,0.5-11.8-1.2-18.7c1.6-5.7,0-13.4,0.6-20.2
			c-0.6-0.2-1.1-0.4-1.7-0.6c-1.8,1.8,0.1,5.5-1,7.8c-0.9-3.9-0.4-9-0.6-12.8c0.4,1.2,0.6,2.5,1.4,3.2c3.3-1.3,0.9-7.2,1.7-10.7
			c-0.7-0.3-0.6,1.2-1,0.4c1.3-1.7,2.7-0.9,4.3-1.7c0.1,0.4,0.1,0.9,0.6,0.9c-0.2-1.4,1.5-1.1,2.1-0.6c0,0.4-0.6,0.3-0.4,0.9
			c1,0,1.8-0.3,2.1-1.1c2,0.5,3.8,0.4,5.2-0.6c3.4,0.1,5.4-0.2,6.8-2.3c-2.8,1.7-8,0.7-10.9,1.9c-2.1-1-6.4,0.6-8.7-1
			c2.5-0.4,6.2,0.4,8.4-1.5c-1.3-0.1-4.5,0.3-5.4,0.2c4.5-1.5,10-1.1,14.9-1.3c-0.2,0.6-1.2,0.3-1,1.3c1.2-0.8,2.1,0.6,2.9-0.6
			c-0.1-0.4-1,0-1-0.4c1.2-0.2,2.2-0.5,3.1-1.1c0.8,0.7,2,0,3.1,0.6c5.4-1,10.5-0.8,17.1-1.4c0.7,0,1.3,0.1,2,0.1
			c0.5,1.1-1,0.3-0.8,1.1c1.8,0.1,3.9-0.1,5,0.8c2.3-1.3,4.6,0.2,6.8,0.3c2.1,0,4.2-1.2,6.2-0.3c0.3-0.2,0.5-0.6,1.2-0.5
			c0.6,0.3,1.1,0.3,1.5,0.2c-0.2,9,1.2,6,1.5,0.6c0-0.2,0.1-0.6,0.1-0.9c1.3,0,2.8,0.3,4.2,0.5c0,5.5,0,11-0.4,16.4
			c0,0.8,0.6,0.9,0.6,1.7c-0.4,10.9-0.8,17.6-1,27.2c-0.2,7,0.6,14.1,0.2,21c-0.3,5.8-1.1,11.6,0,17.2c-0.1,0.6-0.6,0.9-0.4,1.9
			c1.9-1.8,0-7.5,1.2-9.9c-0.2,5.1,0.6,11.8-0.4,16c0,0.4,0.9,0,0.8,0.6c0.8,2.6,0.4,7.5,0.8,10.1c1.1-1.2,0-3.3,0.8-4.6
			c0.2,5-0.6,10.3,2.1,13.1c0.7-1-0.5-1.7-0.8-2.3c-0.7-4.7-0.6-10.5-0.4-16.2c-0.3-0.5-0.6-1-0.8-1.5c1.2-1.5,0.4-3,1-4.4
			c-0.2,1.8,1.4,3.2,0.8,5.5c1,0.1-0.4-1.2,0.6-1.3c2,1.6,0.8,4.1,1.6,5.7c-0.9,0-0.7-1.2-1.8-1c-0.3,0.5,0.6,0.9,0,1
			c0-0.6-0.6-0.7-0.8-0.4c0.4,1.1-0.4,2.2,0.8,2.5c0.7-0.6-0.6-1.9,0.4-2.1c0.9,0.9,1.5,3.1,1.8,4.6c0.2,0.7,0.5,2.1-0.2,2.3
			c0-0.5,0-0.8-0.4-0.8c-0.6,0.6,0.5,0.7,0.2,1.7c1.7-0.5,2.5,0.2,3.5-1.3c0.3-1.1-0.9-0.6-0.8-1.5c2-1.1,3.2,0.2,4.7-0.4
			c0.1,0.3-0.2,1.1,0.2,1.1c0.2-0.5,0.4-0.8,1-0.8c0.5,0.1,0.9,0.4,1.2,0.6c0,0.4-0.6,0.3-0.4,0.8c1.1,0.1,1.9,0,2.3-0.6
			c2.7,1.8,6.2,0.5,9.7,1.7c0.7-0.6,1.7-0.9,2.5-1.5c-2,0.9-5-0.4-6.6-0.6c-1.7-0.3-2.5,0.4-3.1-0.6c-0.2,0.3-0.9,0.2-1.2,0.4
			c-0.6,0-0.3-1-1-0.8c-3.4,0-5.3-1.2-8-2.3c3-0.2,7.4,2.3,9.3,0.4c-3.3-0.3-6.8-1.1-8.9-2.1c6,0.9,12,2.2,18.3,3.6
			c0,0.8-1.5,0-1.2,1.1c1.3-0.3,1.5,0.6,2.7,0.4c0.6-0.6-0.4-0.5-0.6-0.8c1.9-0.3,4.7-0.1,6.2,1.1c2.3-0.4,5.3,0.8,8,1.5
			c1.1,0.3,3.2,1,3.9-0.2c-3.5-0.9-6.5-1.5-9.5-2.5c2.1-0.8,5.4-0.1,6.8-0.6c-0.1,1.2,1.7,0.9,2.3,0.8c0.3-0.8-0.9,0-0.6-0.8
			c2.1,0,2.8,0.2,4.1,0.8c1.4-1.5,3.4-0.2,5.4-0.4c0.1-1.1-0.7,0-1-0.6c0.6-0.3,1.1-0.7,0.4-1.3c-1.7,2.2-4.8-0.5-7.1,0.4
			c0.4-0.3,0-1.4,0.7-1.4c0.4,0.1,0.4,0.6,1,0.4c-0.1-2.1,2-2.3,3.7-3.6c1.4-1,2.5-2.1,3.7-2.7c0.4,0,0.3,0.6,0.8,0.4
			c0.1-0.7-0.4-0.6,0-1c4.2-1.1,8.1-2.5,11.8-4.2c0,0.9,0,1.9,0.8,1.9c0.2-0.6-0.4-2,0.4-1.9c0,2.3,0.8,4,2,5.1
			c-0.4,2.1-1.3,7.1,0.6,8.4c1.4-2.3-0.5-7.3,1.2-9.3c-0.4-0.4-0.7-1-0.6-1.9c-0.5,0-1,0-1-0.4c0.9-0.5,0.2-1.5,0.4-1.9
			c2.5,2.4,5.6-1.2,8.1,1.1c-1.3,0.5-3.4,0.2-4.1,1.3c1.4-0.4,1.5,0.6,2.3,0.8c0.8-0.7,2.9-1.2,3.9-1c-0.4,0.7-0.6,1.3-0.6,1.9
			c-1.7,0.5-3.3-1.1-3.7,0.4c0.6,0.9,2.6,0,3.7,0c6.2,1.1,12.4,1.8,18.8,1.9c0.1-0.5-0.4-0.5-0.2-1c3.1-1.3,7.5-0.4,10.1-1.9
			c2.6,0.2,6.6-0.7,8.9,0.2c5-1.1,10.6-1.1,15.9-1.5c1.9-0.1,3.4,0.4,5.2,0.6c1.3,0.1,2.7-0.5,4.1-0.4c3.5,0.1,7.3,1.5,10.7,0.4
			c7.2,0.9,14.8,0.1,21.5,1.3c0.4-0.1,0.4-0.6,1-0.4c0.7,0,0.7,0.6,1.5,0.4c0.8,0.2,0.6-0.5,1.2-0.4c8.6,1.3,17,0,26,0.4
			c8.4-1.2,18.1,0.1,25.6-1.9c1,0.4,1.8,0,2.9,0c0.6,0.1,0.6,0.7,1.5,0.6c0.8,0.2,0.7-0.5,1.2-0.6c4.7,1.2,11.2,0.5,16.9,0.9
			c6.3,0.4,12-0.2,17.5,0.6c5-0.4,13.8,0.1,19,0.2c0.3,0.6-0.2,0.8,0.4,1.1c0.2-0.3,0.2-1,0.8-0.9c5.7,0.5,11.2-0.4,16.7,0.9
			c0.1-1.1-0.7-1.4-0.8-2.3c0.2-0.2,0.8-0.1,0.6-0.6c-0.5,0.1-0.5-0.4-0.6-0.8c0.7-0.5,1.6-0.6,2.1,0.2c0.4,1.4-0.6,1.5-0.8,2.3
			c0.3,0.5,0.5,1.1,0.4,2.1c1.7,0.6,3.3,1.4,3.7,3.3c1.2-0.3,1.4,0.5,2.3,0.6c0.8-1.2,1.6,0,2.9,0c0-0.7-0.7-0.6-0.4-1.5
			c1.4-1.7,3.5-0.2,5,0.4c0.9-0.5,1.7-1.2,2.9-1.5c0.4-0.3,0.4-1,0.6-1.5c4.3-1.9,8.6-1.6,13.6-3.2c0.8,0.8,2.4,0.2,3.1-0.4
			c0.2,0.3,0.5,0.4,1,0.4c3.3-1.1,8.4-0.2,10.5-1.9c0.1,0.2,0.2,0.5,0.4,0.6c2.6-1.1,6.3-1,9.9-1.1c0.7-2.9,2.3-4.7,4.1-6.4
			c0.7-3,3.3-7.9,4.6-9.8c-1.6-2.1-1.3-5.7-2.1-7.8c0.6-0.6,2.3-0.1,2.7-0.9c-1.4-0.5-4,0.2-4.8-1c0.9-0.8-0.2-0.6-0.4-1.3
			c1.5,0,2.9,0,3.7-0.2c0.2-1.3-1.3-0.8-1.9-1.3c0.2-0.5,1.4,0.2,1.2-0.6c-0.7-1-3.6,0.1-4.1-1.1c0.9-3.5-0.7-0.8-0.4-4.7
			c0.8,0.4,1.7-3.6,1.8-5.6c0.4-1.1,0.7-2.2,0.5-3c-0.3-0.2-0.5,0.9-0.6,2.1c-0.1,0-0.1,0.1-0.2,0.2c0.1-1.3,0.2-2.6,0.2-2.7
			c-0.6,0.3-1,5-1.2,4.4c0.6-2.4-1.3-6.1,0.8-8.2c-0.2-1-1.1-0.2-1.2-0.4c0.6-5.2,0.4-10.9,0.4-17.1c-0.8-0.1-1.8,0.2-2.3-0.2
			c0.1-4.9-0.2-8.2,0.2-12.8c0.2-0.4,0.6-0.7,0.8-1c-1.3-4.6-1.1-9.2-1.4-14.1c0.5,0,1,0,1.1-0.4c-0.2-0.3-0.8,0-0.8-0.4
			c-1-4.9,1.6-8.7,0.2-12.6c0.1-0.6,0.9-0.5,0.8-1.3c-0.8-3.8,1.1-6.9-0.4-10.3c3.7-2.7,0.8-9.4,2.3-14.1c-0.2-0.6-1.1-0.4-1-1.3
			c0.6-0.7,1.2-1.4,1.7-2.3c-0.1-0.5-1.1,0-1-0.6c0.1-1.5,1.2-0.7,1.4-1.9c-0.3,0-1,0.2-0.8-0.4c0.4-0.5,1.4-0.4,1.2-1.5
			c-0.3-0.1-1.1,0.2-1-0.2c0.1-1.8,1.2-3.7,0.8-6.5c2.2,0,1.4-3.4,0.4-4.2c0.8-0.1,1.5-0.5,1.2-1.7c-0.6-0.1-0.5,0.6-1.2,0.4
			c0.5-1.2-0.4-3.1,1.2-4c0.2-0.6-0.3-0.5-0.2-1c-0.7-0.3-0.8,1-1.2,0.2c0.3-0.5,1.1-0.7,1.2-1.5c-1.2-0.8,0.3-2.6,0-4.4
			c-2.8-1.2-2.1-5.9-1.1-8.7c1.9-0.5,3.9-2.2,5.4-1c0.3-0.4,0.4-1.1,0.6-1.5c1.6,0.6,2.8-0.6,4.4-0.7c0.1-0.8-0.7-0.3-0.8-0.9
			c1-0.8,3,0.2,3.6-1.8c-0.2-0.2-0.5-0.2-0.4-0.9c0.3-0.4,1,0,1.2-0.6c-0.5,0-0.3-0.3-0.2-0.9c-0.5-0.1-1.2-0.1-1.4-0.7
			c1.1-0.6,2.2-0.5,2.9-2c0.2-2.2,0.6-4.2,0.6-6.4c-0.5-0.4-1.1-0.5-1.3-1.5c0.2-2.1,1.7-1.8,3.1-1.8
			C1079.9,310.2,1078.3,310.5,1077.6,310.8z M962.2,130c0.5,0.5,0,1.7,0,2.3C960.8,132,962.3,130.8,962.2,130z M936.9,4.4
			c-0.7,1.1-6.4-0.1-7.8,0.6C928,3.8,933.7,4.7,936.9,4.4z M108.3,119.9h0.6c0.4,1.4,0.1,3.5,0.4,5c-0.9-0.2-0.5-1.7-1.2-2.1
			C108.5,121.7,108.9,121,108.3,119.9z M110,140.7c-1.4-0.9-0.4-3.4-0.4-5.1c-0.9-1.2-0.1-3.1-1.2-4.2c1.2-1.3-0.7-3.5,0.4-4.2
			C109.7,130.7,110.1,135.6,110,140.7z M108.3,154.8c0.2-0.2,0.6-0.1,0.6-0.4c0.4,0.2,0.6,0.9,0.2,1.3
			C108.6,155.6,108.4,155.3,108.3,154.8z M108.3,161.3c0.5-0.1,0.8,0,1.1,0.2C109.3,162.2,108.2,162,108.3,161.3z M109.4,159.9
			C108.9,161.7,107.7,158.9,109.4,159.9L109.4,159.9z M109.2,182.4h0.8C110.2,183.2,109,183.2,109.2,182.4z M110.2,170.2
			c-1.6-0.3-0.4-2-1-3.2c0.3-0.9,0.5,0.2,1.2,0C110,168.1,110.6,169.3,110.2,170.2z M110.6,160.5c-0.5,0.1-0.8,0-1-0.2
			c0.5-0.3,1.1-0.4,0.8-1.5C111.3,158.8,110.6,160.1,110.6,160.5z M88,510.4c0.1-0.9,2.2-1.1,2.7,0C89.7,510.7,89.2,509.7,88,510.4z
			 M90,293.4c0-0.3,1.5-0.8,1.4,0H90z M94.5,293c-0.1-0.8,1.1-0.2,1.7-0.4C96.3,293.4,95,292.8,94.5,293z M102.3,291.7
			c0-0.7,1-0.4,1.7-0.4C104.1,292.1,102.9,291.5,102.3,291.7z M120.7,163c0.8,0.3,0.4,2.1,0.2,2.8
			C120.4,165.3,120.8,163.9,120.7,163z M118.4,160.1c-1.2-0.4-0.1-1.8-0.4-3.2c0.3-0.1,0.3,0.2,0.6,0.2
			C118.8,158.3,118.3,158.9,118.4,160.1z M117.8,162.8c1.1,0.8,0.8,2.6,0.4,3.8C117.6,165.7,118,163.7,117.8,162.8z M118,162.2
			c-0.2-0.6,0-0.9,0.2-1.5C118.9,160.8,118.7,162.3,118,162.2z M117.8,154c0.7,0,1,1,0.6,1.5C117.6,155.6,117.8,154.6,117.8,154z
			 M117.8,168.1c0.4,0,0.1,0.7,0.2,1.1C117.1,169.2,117.5,168.4,117.8,168.1z M116.4,165.8c-0.1,0.7-1,0.7-0.8,1.7
			c0.2,1,1,0.1,1.2,1.1c0.1,0.8-0.4,1.2-0.2,2.1c0.2,1,1.3-0.3,1.4,0.6c0,1.3-0.9,0.3-1.2,1.3c0,1,1,1,1.2,1.7
			c0.1,0.6-0.4,0.7-1,0.6c-0.4,2,0.6,3.1-0.4,4.4c1.1,4.4-0.4,8.5,0.6,12.4c-0.1,0.6-0.4,0.9-0.6,1.5c0.6,3.2-0.1,6.4,0.4,9.9
			c-0.1,0.7,0.5,0.6,0.8,0.8c-0.2,0.6-1.2,0.4-1,1.5c-0.2,0.9,0.6,0.8,0.8,1.3c-0.7,1.4-0.8,3,0.4,3.8c-0.4,0.2-0.8,0.4-1.2,0.6
			c0.2,3.5-0.5,6.6,0.4,9.7c-0.1,0.7-0.6,1-0.8,1.7c0.1,0.7,0.7,0.9,1.2,1c-0.3,1.4-1.1,4.1,0,5.1c-0.7,3.7-0.6,6.8-1.2,12
			c-0.9-0.3-1-1.4-0.2-1.9c-0.9-6.9-0.3-13.8-0.8-21.2c0-0.6,0.4-0.7,0.6-1.1c-1.1-2.6,0.4-6.2-0.8-9.5c1.6-4.3,0.8-9.3,0.2-13.7
			c-0.2-0.9,0.4-0.8,0.4-1.5c-1.2-3.1,0.8-8.3-1.4-10.3c-0.6-0.2-0.6,0.4-1.2,0.2c0.1-0.9-0.3-1,0-1.7c1-0.1,0.4,1.4,1.4,1.2
			c2.1-1,0.4-5.9,0.4-7.8c0-3.5,0.2-6.4,0-9.1c-1.2-0.9-1.1-4.1,0.2-4.8c0-9.6-0.8-24.2-1.2-33.9c0.3-0.1,0.3,0.2,0.6,0.2
			c0,3.8,0.7,7.2,0.8,10.5c0.2,3.8-0.4,7.4,0,10.9c0.1,0.9,0.3,1.4,0.4,2.5c0.1,1.3,0.2,2.6,0.2,4.2c0,1.3,0.8,2.6,0.8,3.8
			C116.9,160.1,115.8,162.6,116.4,165.8z M113.3,223c-0.7-4.9,0.5-9.8-0.4-15.6c0.7-0.2,0.3,0.9,1,0.6
			C113.3,213.2,114.6,218.3,113.3,223z M113.1,237.9c0.3-4.8,0-9.1-0.2-14.5c1.6,2.6,0.9,8,0.8,11.8
			C113.7,236.2,114.4,237.5,113.1,237.9z M113.1,184.1c0.8,2.4,0.2,4.9,0.6,8C113,190.1,112.6,186.6,113.1,184.1z M112.9,170.4h0.6
			c0.1,0.8-0.2,1-0.4,1.5C112.6,171.8,113,170.8,112.9,170.4z M112.9,174.6c1,1.3,0.8,3.1,0.4,4.6
			C112.4,178.4,113.1,176.1,112.9,174.6z M113.3,193.3c0.8-0.1,0.4,1.5,0.2,1.7C113,194.8,113.4,193.8,113.3,193.3z M114.7,96.1
			c0.7-0.8,0.7-2.3,0.6-3.8c0.6,2.1,0.4,5.3,0.6,7.4C115.2,98.9,115.7,96.8,114.7,96.1z M115.8,85.7c-0.1,0.1-0.1,0.2-0.2,0.3
			c-0.4,0.3-0.6-0.1-0.9-0.4C115,85.6,115.4,85.7,115.8,85.7z M114.1,121.8c0.2-1.1-0.4-2.5,0.2-4
			C114.9,118.6,114.9,121.1,114.1,121.8z M113.9,103.4c-0.1,0.7,0.5,1.1-0.2,1.3c-0.6-0.1-0.6-0.7-0.8-1.3H113.9z M112.3,145.1
			c0.5,1,0.5,2.5,0.6,4.4C112,148.5,112.3,146.8,112.3,145.1z M112.5,283.8c-0.7-0.4-0.4-2.7-0.2-3.4
			C113.1,280.7,112.1,282.6,112.5,283.8z M112.5,143.4c-0.6-0.5-0.7-2.2-0.4-2.9C112.9,140.7,112.2,142.6,112.5,143.4z M112.3,139.9
			c-0.6-0.3-0.4-1.1-0.2-1.7C112.4,138.5,112.6,139.4,112.3,139.9z M111.2,193.3c-0.5-0.4-0.8-0.9-1.2-1.2c-0.1-0.7,0.8-0.4,0.8-1.1
			C111.7,191,111,192.6,111.2,193.3z M111.6,125.1c-0.1-1.6-0.6-3.2-0.2-4.4c1.2,5.2,0.9,10.7,0.8,16
			C111.1,134.5,111.9,129.1,111.6,125.1z M111.6,274.3c0.1,0.6-0.3,0.7-0.8,0.6C110.8,274.4,111.1,274.3,111.6,274.3z M111.2,271.2
			v1c-0.6,0-0.6-0.5-0.6-1H111.2z M112.3,518c-0.9-0.7-2-0.3-2.9-0.6c0.9-0.9,3.5-0.1,4.8-0.6C114.1,517.8,112.6,517.2,112.3,518z
			 M113.3,242.1c0.7,1.9,0.9,5,1,6.3C112.3,248,113.8,244.8,113.3,242.1z M113.7,202.6c-1.4-1.6-0.3-5.4-0.6-7.4
			c0.9,1.3,0.3,4.2,1.4,5.3C114,200.9,114,201.9,113.7,202.6z M115.2,276.4c0.7,0.3,0.6,1.7,0.2,2.1
			C114.9,278.2,115.3,277.1,115.2,276.4z M115.5,281.1c-0.4,0-0.1-0.9-0.2-1.3C116.2,279.7,115.5,280.7,115.5,281.1z M116,245.7
			c-0.8,0.2-0.7-0.9-0.4-1.2C116.1,244.5,116,245.2,116,245.7z M116.2,243.6c-1.3-0.4-0.5-2.1,0-2.9
			C117,241.1,115.9,242.5,116.2,243.6z M125.3,516.5c-1.2,0.7-3.5,0.4-4.5,1.3c-1.7-0.7-3,0-4.1,0v-0.4c4.2-0.7,9-1.5,13-1.1
			C128.9,517.7,126.7,516.7,125.3,516.5z M136.9,513.8c0.1-0.7,1.2-0.3,1.6-0.2C138.4,514.1,137.4,513.7,136.9,513.8z M142.9,508.3
			c0-0.5,0.7-0.4,1.2-0.4C144.3,508.7,143.3,508.2,142.9,508.3z M143.3,517.2c0.5-0.1,1.3-0.5,1.2,0.4
			C144.2,517.9,143.1,518,143.3,517.2z M158.9,510.6c-0.5,0.8-1.3,0.6-2.3,0.4C157.2,510.4,157.9,510.5,158.9,510.6z M146.8,508.1
			c0.2-0.5,1.3-0.1,1.9-0.2C148.2,508.6,147.6,508.1,146.8,508.1z M148.4,518c-0.4-0.4,0-0.5,0-1c0.4-0.1,0.6,0.1,0.8,0.2
			C149.2,517.7,148.9,518,148.4,518z M149.1,516.5c-0.4-0.2-0.5-0.9-1.4-0.6C147.7,514.9,150,515.7,149.1,516.5z M149.1,511.9
			c0.8-0.3,1.9-0.4,3.1-0.4C152.1,512.6,149.7,512.1,149.1,511.9z M151.5,508.3c0.9-0.9,2.4-0.8,3.5-0.4
			C154.3,508.7,152.8,507.9,151.5,508.3z M155.2,517.2c-0.1-0.6,0.5-0.6,0.4-1.2c1.1,0.5,2.2-0.2,3.1,0.2
			C158.4,517.8,156.6,516.6,155.2,517.2z M158.7,513.2c0.2-0.8,1.1-0.2,1.4,0C160,514,159.2,513.3,158.7,513.2z M162.4,511.3
			c-0.3-0.2-0.6-0.3-0.6-0.9c0.3-0.3,1-0.3,1.2,0C163.2,511.1,162.5,510.9,162.4,511.3z M163.1,513.4c1-0.5,4-1.4,4.3,0H163.1z
			 M165.7,510.9c0-0.2-0.1-0.4-0.2-0.4c0.2-0.8,1.6-0.3,2.5-0.4C168.1,511.2,166.3,510.4,165.7,510.9z M169.9,513.2
			c-0.5,0.1-0.9,0.3-1.6,0.2c0-1.1,1.6-0.7,1.2-2.1h1C170,511.9,169.4,512.1,169.9,513.2z M171.1,517.4c-0.5,0.1-0.7-0.3-0.6-0.8
			h0.8C171.2,516.7,171.1,517,171.1,517.4z M169.1,510c0.4-0.2,2.4-0.6,2.3,0.4C170.4,510.1,169.5,510.9,169.1,510z M202.3,507.5
			c-0.4,1.2-3.6,0.5-4.1-0.2C199.1,507,200.6,507.8,202.3,507.5z M174.4,511.1c-1.1,0-1.6-0.5-2.1-1
			C173.1,509.2,174.7,510.1,174.4,511.1z M176.5,517.6c-0.5-0.3,0.5-0.8,1.2-0.6C178,517.9,176.5,517,176.5,517.6z M172.4,513
			c2.3-0.2,3.6,0,5.8-0.2C176.9,513.8,173.5,513.8,172.4,513z M175,511.1c0-0.3,0-0.6-0.2-0.6c0.5-0.7,2-1.5,2.9-0.6
			c-0.5,0.4-0.4,0.5,0.4,0.4C177.3,511.7,175.9,510,175,511.1z M179.8,516.5c0.1-0.8-0.8-0.6-0.6-1.5c0.8,0.2,1.2,0.2,2.1,0
			C181,515.8,180.5,516.3,179.8,516.5z M179,513c0.3-0.4,1.2-0.6,1.2,0.2C179.6,513.3,179.4,513,179,513z M181.4,513
			c0-0.6,1.2-0.5,1.4-0.2C182.9,513.4,181.7,513.2,181.4,513z M183.3,513.4c2.4-0.7,5.2-1.8,7.2-0.6
			C189,514.2,185.1,513,183.3,513.4z M184.9,510.6c0-0.3,0.6-0.1,0.6-0.4c-1.6-0.7-3.2,0.2-4.1,0.9c-1.2-0.1-1.8-1-2.9-0.6
			c-0.2-0.6,0.3-0.5,0.2-1c3.5,0,9,0.8,13-0.4c0.8,0,0.6,0.9,1.6,0.6c0.9-1.7,3.8,1,4.3-1c0.7,0.1,0.7,0.8,1.2,1
			c-0.2,0.3-0.7,0.4-1.2,0.4c-0.2,0.7,0.6,0.3,1,0.4c-0.4,1.1-2.2,0.3-2.1-0.4C191.6,510.1,188.9,510,184.9,510.6z M194.2,511.1
			c0.3-0.6,1.2-0.6,2.1-0.6C196.3,511.4,194.6,511.2,194.2,511.1z M195.4,513.4c0.7-1.5,2.6-0.4,4.1-0.4c3.5-0.1,6.9-0.9,10.7,0.2
			C206,513.9,200.9,513.1,195.4,513.4z M210.9,513.6c3.3-1.4,8.4-0.7,11.3-0.6c1.5,0,2.4-0.9,2.9,0.6
			C220.4,513.2,215.5,513.8,210.9,513.6z M229.3,513c2.2,0.1,4.2-0.2,5.8-0.8c0.2,0.1,0.4,0.2,0.4,0.4
			C234.4,514.1,231.1,513.4,229.3,513z M232.4,511.3c-1.2-0.8-3.1,0.2-4.3-0.6c-0.7-0.2-0.9,0.2-1.2,0.4c-4.5-0.7-9.5,0.1-13.8-0.4
			c-2.1,1.4-5.5-0.5-8.2,0.6c-0.3-0.2-0.5-0.6-1-0.6c-1.3,0.1-2.5,0.8-3.3-0.2c0.6,0,1.6,0.2,1.4-0.6c0.6,0,0.5,0.6,1,0.6
			c0.6-0.7-0.4-0.7-0.2-1.5c1.2,0,1.7,0.8,2.5,1.2c0.3-0.3,0.3-0.8-0.4-0.6c0.5-1,1.7,0.3,2.1,0.8c0.6-0.4,1.2-0.7,1.6-1.2
			c0.6,0.1,0.5,1,1.4,0.8c0.9,0.1,0.8-0.8,1-1.3c3.6,1.5,6.1-0.3,9.7,0.6v0.6c5.3,1.5,11.6-1.1,15.9,0.4
			C235.6,511.5,233.2,510,232.4,511.3z M244.3,511.9c-0.9,0.2-0.3-1.3-1.4-0.8c-0.4,0,0.3,0.6-0.2,0.8c-0.9-0.2-1.8-0.6-3.1-0.4
			c0-1.1-0.5-0.6-1.4-0.6c1.7-1.3,5.3-1,6.8,0.4C245,511.7,244.8,511.9,244.3,511.9z M244.5,510.4c0.7-0.4,4.1-0.2,5,0.6
			C247.4,510.8,245.3,512.4,244.5,510.4z M250.7,516.1c0.2-0.4,0.4-0.7,1-0.6C251.9,516.3,251.1,516.5,250.7,516.1z M254.6,515.9
			c-0.5,0-0.9-0.1-0.8-0.6C254.4,515.2,254.9,515.2,254.6,515.9z M260,514.6c0.5-1,2.8-0.1,3.7-0.6
			C263.3,515.5,261.5,514.4,260,514.6z M253.2,511.9c-0.7,0.1-0.5-0.7-1.2-0.6c-0.7,0.1-0.3,0.8-0.2,1.3c-0.7-0.3-1.6-0.4-1.9-1.3
			c1.6-1.4,3.8-0.2,5.6,0c1.3-1.3,3.6-0.6,5.4-0.2c1.5,0.3,3.7-0.8,4.3,0.6C260.7,511.5,257.2,511.3,253.2,511.9z M265.8,517.2
			c0.5-1.3,1.7,0,2.7,0C267.9,517.2,266.6,517.5,265.8,517.2z M266.4,511.7c0.3-0.9,1.5-0.6,2.1-0.2
			C268,511.7,266.9,512.1,266.4,511.7z M272.4,517c0.5-0.5,2.1-0.2,2.7,0C274.5,518.4,273.3,517.4,272.4,517z M291.6,518.2
			c-0.2-0.9,0.8-1,1.2-0.6C292.6,518,292.2,518.2,291.6,518.2z M405.6,507.3c0.2-0.7,0.9-0.9,1.2-1.5c0.6-0.1,0.5,0.6,1,0.6
			C407.1,506.6,406.7,507.4,405.6,507.3z M590.4,520.1c-0.4,0.5-0.1-1.4-0.2-1.9C590.6,517.7,590.4,519.6,590.4,520.1z M592.3,521.4
			c-0.8,0.1-0.6-0.8-0.6-1.5C592.2,520.1,592.4,520.6,592.3,521.4z M593.3,520.1c0,0.5,0.2,2.5,0.4,4
			C592.4,523.6,593,520.8,593.3,520.1z M606.9,507.1c-1.3,0.1-2.1-0.5-3.1-0.8c-0.2-0.6,0.3-0.6,0.2-1.1c1,0.5,1.3,0.8,2.3,1.1
			c0.3-0.1,0.2-0.5,0.2-0.9C607.6,505.4,606.8,506.3,606.9,507.1z M611.9,417.9h1c-0.1,0.4,0,0.7,0.4,0.6c-0.3,0.5-0.6,1,0,1.5
			C613.5,420.2,611.5,419.3,611.9,417.9z M612.3,422.9c0.3,0.5,0.7,1.7,0.4,2.1C612.4,424.5,612,423.3,612.3,422.9z M612.3,420.4
			c0.4,0.7,0.8,1.7,0.2,2.3C611.7,422.5,611.8,421,612.3,420.4z M612.1,441.2c0-5.3-0.9-11.4-0.4-17.3c0.6,1.1,1.3,4,0,4.2
			c-0.2,1,0.8-0.3,0.8,0.4c0,11.3,1.2,23.6,0.8,33.7c-1-0.8-0.4-2.2-0.4-3.8C613,452.9,612.1,447,612.1,441.2z M613.3,468.8
			c-1.2-0.3-0.2-1.4-0.2-2.3C614.2,467,612.6,468,613.3,468.8z M615,435.8c0,1.4,0.5,2.5,0,3.8c-0.3-1.1-0.2-2.7-0.6-3.8H615z
			 M614.8,441.7c0.7,0.8,0.9,2.2,0.4,3.2C614.6,444.2,614.8,442.9,614.8,441.7z M615,447.1v-1.5C615.6,445.8,615.9,447.1,615,447.1z
			 M615.2,449c1,5.6,0,12.5,0.8,18.5C614.2,461.7,615.2,455.4,615.2,449z M619.1,465.2c-0.9,0.8-0.5,2.8-0.4,3.6
			c-1.4-1-0.5-4.2-0.8-5.9C618.5,463.4,618.1,465.1,619.1,465.2z M618.1,445.7c-0.8,1.2,0.2,3-0.6,4.2c0.7,1.5,0.4,4.1,1.3,5.5
			c-1,1.9,0.6,4-0.4,4.8c-0.8-4.5-1.1-10-1-15.6C617.8,444.7,617.6,445.5,618.1,445.7z M617.4,418.9c0.6,0.1,0.6-0.4,1.3-0.2
			C618.8,419.5,617.3,420,617.4,418.9z M618.5,428.6c-0.8-0.1-0.8-0.7-0.6-1.3c0.4-0.1,0.6,0.1,0.8,0.2
			C618.8,428.2,618.4,428.1,618.5,428.6z M619.3,419.1c0.8-1,1.8-0.5,2.7-0.6C621.6,419.7,620.3,418.6,619.3,419.1z M661.8,2.3
			C659.7,3.1,655.5,2,661.8,2.3L661.8,2.3z M691.3,487.4c-0.1,1.4,0.1,2.9,0,4.4c-0.2,5.4,0.6,10.8-0.2,16.2
			c-0.4-3.7-0.2-7.8-0.4-11.1c-0.2-3.2,1.3-7.2-0.6-9.5c1.1-2.2,0.5-4.5,1-6.5c0,1.6,1,3.3,0.8,5.1
			C691.8,486.4,691.3,486.9,691.3,487.4z M697.7,514.1c0.7-0.5,1.4,0.2,2.5,0C699.9,515.1,697.9,515.2,697.7,514.1z M700.2,511.2
			c-0.3,0.8,0.6,0.4,0.4,1.1c-0.8,0.1-1.1-0.3-1.4-0.6c-0.6,0.1-0.7,0.8-1.4,0.6c0.3-1-0.5-0.9-0.8-1.3c0.6-0.6,1-0.8,0.6-2.1
			c0.5,0,1,0,1.2,0.2c-0.1,1.4,1.1,2,2.5,1.7C701.4,511.5,700.5,511.1,700.2,511.2z M706.8,512.6c-1.8-0.8-4.2-0.7-5.4-1.7
			c1,0.1,1.3-0.7,2.7-0.6c-0.1,0.5,0,0.8,0.2,1c1,0.1,1.9,0.3,2.7,0.6C706.8,512.2,706.7,512.3,706.8,512.6z M707.6,512.2
			c1.3,0.3,2.2,0,2.7,0.4C710,513.5,707.4,513.2,707.6,512.2z M710.5,513.3c0.8-0.5,2.2,0.1,2.7,0.6
			C712.1,513.8,711.3,513.5,710.5,513.3z M713.3,513.5c1.2,0.6,3.2,0.4,4.1,1.3C716,514.5,714,514.6,713.3,513.5z M717.9,515.2
			c0-0.7,0.3-1,0.8-1C718.8,514.8,718.7,515.3,717.9,515.2z M721.6,515.8c0.7-0.2,2.7-0.9,2.9,0.2
			C723.3,516.4,722.5,515.8,721.6,515.8z M740.4,516.9c0.8,0,1,0.5,1.7,0.6C741.9,518.2,740.1,517.8,740.4,516.9z M736.1,1.7
			c0,0.6-2.6,0.5-3.2,0.2C733.1,1.4,735.2,1.8,736.1,1.7z M735.6,512.2v0.8c-0.7,0.1-0.5-0.8-1.2-0.6
			C734.4,512,735.3,512.3,735.6,512.2z M735.8,516.7c-0.9-0.2-2.8-0.2-3.7-0.9c0-0.5,0.2-0.7,0.6-0.6c-0.3-0.2-0.6-0.5-0.8-0.8
			c1.3-0.6,2.6-0.2,4.5-0.4c0,0.3-0.2,0.4-0.2,0.6c0.5-0.1,0.8-0.3,1.5-0.2C737.3,515.4,736,515.5,735.8,516.7z M736,512
			c0.9,0.2,2.6-0.2,2.5,1C737.1,512.9,736.3,513.2,736,512z M929.5,9.1c-1.6-0.3-0.6-0.9-2.7-1c1.3-0.8,4.7,0.5,4.6-0.8
			c1.4-0.2,2.3,0,2.8-0.2c1.9,0.2-1.9,0.6,0,0.8c-0.2,0.5-2.3,0.1-3.2,0.2c0.4,1.2,2.8,0.1,4.2,0.9c-0.5,0.5-2.1,0.4-3.7,0.4
			C932.5,7.8,928.6,8.8,929.5,9.1z M932.8,15c0.5,0,0.8,0,0.9-0.2c1.1-0.1,1,0.4,2.3,0.2C933.4,15.5,925.5,15.2,932.8,15z
			 M940.3,292c-0.5-0.5,0.5-0.9,0.4-1.7h1c1,0-0.2,0.3,0,0.9c1.3-0.3,1.5-1.7,1.6-3.2c0.7-0.2,0.3,0.7,0.8,0.6
			c2.1-1.7,3.9-3.6,5.8-5.5c0.8,0.4,1.1,1.2,1.4,2.1c-0.6,0.9-1.4,1.7-1.6,2.9c-0.2,0.7,0.7,0.3,0.8,0.8
			C949.1,292.3,943.9,291.2,940.3,292z M1014.9,295.8c0-0.8,1.8-0.4,2.1-0.2C1016.7,296.1,1015.5,295.7,1014.9,295.8z M1022.1,296
			c0.3-0.5,1.6-0.1,2.3-0.2C1024.3,296.5,1022.5,296.3,1022.1,296z M1061.2,465.3c0-0.1,0.1-0.2,0.1-0.3c-0.1,0.8-0.1,1.3-0.2,1.1
			C1061.1,466,1061.1,465.7,1061.2,465.3z M1060.4,467c-0.2,1-0.4,1.6-0.6,1.4C1060,468.1,1060.2,467.6,1060.4,467z M1067.2,332.6
			h0.5c-0.1-0.7,0.2-0.7,0.3-1.1C1067.4,331.4,1067.4,332.1,1067.2,332.6z M1062.7,335.3h0.5c0.1-1.1,0.4-1.8,0.6-2.6
			C1063.1,332.7,1062.2,333.7,1062.7,335.3z M1078.2,313.7c0.1-1.1-0.5-1.2-0.9-0.9c0.1,0.7,0.3,0.3,0.1,1.1
			C1077.8,314,1077.9,313.7,1078.2,313.7z M941.4,16.5C942.4,16.6,941.9,16.5,941.4,16.5L941.4,16.5z M972.5,124.3
			c-0.6,1.1-1.7,1.7-2.1,3C971.6,127.7,973.3,125,972.5,124.3z M971.3,142.6c0.1-0.8,0-1.4-0.2-1.9c0.8-0.4,1.2-1.2,1-2.5h-1
			c-1,1.6-0.2,2.6-1,4C970.9,141.7,970.5,142.5,971.3,142.6z M968.8,122.2c-0.5,1.1-1.7,1.6-2.1,2.9
			C967.9,125.7,969.5,122.8,968.8,122.2z M965.7,140.9c1.1-0.1-0.1-1.1,1-1.1c0-0.5,0-1-0.4-1.1C966.1,139.5,966,140.3,965.7,140.9z
			 M963.8,128.1c0.3,0.1,0.4,0.3,0.4,0.6c0.9-0.2,1.3,0.1,1.8-0.6c-0.3-0.6-0.1-1.6,0.2-2.5h-0.8C965.5,126.9,964,126.9,963.8,128.1
			z M966.1,138c-0.2-0.9,0.5-2.6-0.6-2.5c0,1-0.8,1.2-0.6,2.3C965.5,137.6,965.5,138.1,966.1,138z M964.7,141.6
			c0.1-0.8,0.7-1,0.8-1.7c-0.4,0-0.3-0.6-0.8-0.4c0.1,0.8-0.1,1.3-0.8,1.3c0.1-0.8-0.1-1.3-0.6-1.5c-0.3,0.5-0.7,1-0.6,1.9
			C963,141.6,963.8,141.6,964.7,141.6z M969.5,85.6c-0.6-0.1-1.1,0-1,0.6C969,86.2,969.5,86.2,969.5,85.6z M961,136.5
			c-0.3-1.1,0.4-1.2,0.4-2.1C960.2,133.9,959.9,136.5,961,136.5z M960.3,143.2c0.7,0.1,0.8-0.3,1-0.6c-0.3-0.1-0.4-0.3-0.8-0.2
			C960.5,142.7,960.3,142.8,960.3,143.2z M956.6,109.6c-0.4,0.1-0.5,1.7,0.4,1.2C957.4,110.7,957.5,109.1,956.6,109.6z M956.4,107.5
			h-0.6c0,0.6-0.3,0.4,0,0.8C956.4,108.4,956.5,108,956.4,107.5z M952.7,103.4c0.2,0.9-1.4,0-1.2,0.8
			C952.1,105.1,953.9,103.8,952.7,103.4z M950.5,99.4c0.1-0.3,0.3-0.4,0.2-0.8h-0.8C949.8,99.1,950.1,99.3,950.5,99.4z M957.3,82.3
			c-0.6,0-1.1,0-1,0.6C956.8,82.9,957.4,82.9,957.3,82.3z M949.4,97.2c-0.4-0.1-0.2-0.8-0.8-0.6C948.3,97.2,949.3,97.6,949.4,97.2z
			 M947.6,94.8c0.1,0.7,0.3,1.2,1,1.3C948.4,95.5,948.2,94.9,947.6,94.8z M944.3,93.1h1.4C946.1,91.9,943.8,91.9,944.3,93.1z
			 M1061.8,497.6c0.2-0.2,0.3-0.3,0.5-0.5C1062.2,496.5,1062.1,497,1061.8,497.6z M609.6,511.8L609.6,511.8
			C609.6,511.9,609.6,512,609.6,511.8z M1061.1,498.7c0.2,0.7,0.5-0.4,0.8-1.1c-0.2,0.2-0.4,0.4-0.6,0.6
			C1061.2,498.4,1061.1,498.5,1061.1,498.7z M1065.6,476.6v0.8c0.8-0.2,0.8,0,1.9,0C1067.6,476,1066.3,477.2,1065.6,476.6z
			 M1061.1,448c0.1-0.5,0.3-1-0.4-1.1C1060.7,447.5,1060.7,448,1061.1,448z M1003,290.3c0.3-0.7-1.4-0.5-1.5-0.2
			C1001.9,290.4,1002.5,290.3,1003,290.3z M980,143.6c-0.4,0-0.6,0-0.8,0.2c0,0.3,0.1,0.4,0.2,0.6C979.9,144.6,980,144.2,980,143.6z
			 M976.6,145.8c-0.5,0.8-0.6,1.6-0.4,2.7C977.2,147.9,977.7,146.3,976.6,145.8z M968.2,155h-0.8C967.2,155.8,968.3,155.8,968.2,155
			z M963.4,148.3c-0.6-0.2-1.2-1-1.7-0.6C961.7,148.4,963.3,149.2,963.4,148.3z M962.2,157.8c0.7,0.1,1-0.2,1-0.8
			C962.8,156.4,962.1,157,962.2,157.8z M960.5,146c-0.1,0.5-0.5,1.3,0.4,1.3C960.8,146.8,961.3,145.8,960.5,146z M960.5,258.1
			c0-2-0.1-3.1,0-4.8c-0.3,0-0.3-0.3-0.6-0.2C960.2,254.3,959.4,257,960.5,258.1z M960.1,260.9c-0.4,0.4,0.1,0.9,0.4,1.2
			C960.4,261.7,960.9,260.7,960.1,260.9z M959.3,267.8c-0.6,1.9-1.8,3.3-2.3,5.3c0.4,0.1,0.6,0.5,1.2,0.4
			C958,270.9,960,269.6,959.3,267.8z M955.2,278.4c0.7-1.5,1.5-3,2.1-4.6c-0.3,0-0.3-0.3-0.6-0.2C956.7,275.4,954.4,277,955.2,278.4
			z M953.5,281.7c-0.1-0.7,0.6-0.5,0.4-1.3C953.2,280.2,953.1,281.5,953.5,281.7z M807.6,509.7c-0.5,1.2,2.1,1.2,1.8,0.2
			C809.2,509.4,808.2,509.8,807.6,509.7z M803.1,509.7c-1.4,0.6-3.4-0.1-4.7,0.8C799.9,511,802.4,510.8,803.1,509.7z M795.6,511h1
			v-0.8c-0.5-0.1-0.8,0-1,0.2V511z M794.6,511v-0.6c-0.4,0-0.6,0-0.8,0.2C793.6,511.2,794.2,510.9,794.6,511z M776.9,523.6
			c0.3-0.3,0.7-0.5,0.6-1.3c-0.5-0.1-0.8,0-1,0.2C776.4,523.1,776.4,523.6,776.9,523.6z M758.1,507.2c0.4-0.1,1.4,0.4,1.2-0.4
			C759.2,506.3,758,506.6,758.1,507.2z M733.6,514.7c-0.1,0.6,0.3,0.7,0.8,0.6C734.6,514.7,734.1,514.7,733.6,514.7z M723.9,521.9
			c-0.4,0-0.5-0.2-0.8-0.2C722.8,522.6,724,522.8,723.9,521.9z M720.6,521.5c0.1,0.5,1.1,0.9,1.6,0.4
			C722.4,521,720.8,520.7,720.6,521.5z M717.3,518.3c-1-0.4-2.2-0.6-3.3-0.4C714.2,518.4,716.8,518.9,717.3,518.3z M711.1,516.8
			h-1.2C709.7,517.8,711.2,517.6,711.1,516.8z M704.3,519.6c0,0.3,0.1,0.5,0.2,0.6c0.4,0,0.5-0.2,0.8-0.2
			C705.4,519.3,704.6,519.2,704.3,519.6z M700.8,524.4h-1c-0.1,0.8,0.6,0.6,1.2,0.6c-0.2-0.8,0.6-0.6,0.4-1.5
			c-0.3-0.1-0.4-0.3-0.8-0.2C700,523.9,700.9,523.8,700.8,524.4z M693.3,516.6c0.1,0.7,0.2,1.3,1,1.3
			C694.5,517,694.3,516.4,693.3,516.6z M692.3,529.7c-0.8-2-0.1-4.7-1.2-5.7C691.3,525.6,690.8,528.8,692.3,529.7z M690.3,517.1
			c-0.8-2.5-0.3-6.8-1.2-8.4C688.9,510.8,688.4,515.7,690.3,517.1z M688.8,505.3c-0.3,0.3-0.1,0.9,0.2,1
			C689.2,506.2,689.6,505.1,688.8,505.3z M688.4,463.2c-0.8,0.6-0.3,2,0,2.7c-0.2,0.5,0.2,1.3,0.2,0.4c0.1-1,0.3-1.8,0.2-3
			C688.8,463.2,688.6,463.1,688.4,463.2z M688.2,451.6c0,0.3-0.1,0.5-0.2,0.6c0.3,0.1,0.4,0.3,0.8,0.2
			C688.8,451.9,688.7,451.5,688.2,451.6z M687.2,423.8C687.7,420.3,686.7,416.6,687.2,423.8L687.2,423.8z M687.2,487.2v1.3
			C688,488.7,688,486.9,687.2,487.2z M687.2,425.5c-1.3,1.9-0.5,7.3-0.2,9.5C687,431.9,687.8,427.2,687.2,425.5z M642.8,420
			c0,0.3-0.1,0.5-0.2,0.6c0.2,0.2,0.6,0.3,1,0.2C643.7,420.2,643.1,420.2,642.8,420z M640.3,420.2c0,0.8,0.6,0.9,1.5,0.9
			c0-0.3,0.1-0.5,0.2-0.6C641.6,419.9,640.9,419.9,640.3,420.2z M633.1,419.1c1-0.3,2.6,0.2,3.3-0.8
			C635,418.8,633.3,417.7,633.1,419.1z M630,418.5c-0.5,0-0.6,0.4-1.2,0.2C628.7,419.8,630.1,419.3,630,418.5z M624,422.7
			c0,0.3,0.1,0.5,0.2,0.6c0.4,0,0.5-0.2,0.8-0.2C625.2,422.4,624.3,422.4,624,422.7z M622,478.6c-0.3,0.3-0.4,1.5,0.2,1.5
			C622.5,479.8,622.6,478.7,622,478.6z M621.4,427.6c-0.1,0.6,0.4,0.4,0.4,0.8c-0.3,0.3-1,0.1-1,0.6c0.2,0.2,0.7,0.2,1.2,0.2
			c-0.1-0.8,0.2-1,0.4-1.5C622,427.6,621.8,427.1,621.4,427.6z M620.7,486.4c0.2-0.2,0.3-0.6,0.2-1h-0.6
			C620.3,485.9,620.3,486.4,620.7,486.4z M591.1,525.8h0.8v-1.1h-0.8V525.8z M1067.3,353.5c-0.4,0.5-0.5,1.3-0.4,2.3
			C1067.4,355.6,1068.1,353.7,1067.3,353.5z M1065.8,298.1c-0.1-0.8-0.7-0.6-1.2-0.4C1064.4,298.5,1065.4,298,1065.8,298.1z
			 M1062.9,357.7c-0.5,0.6-0.4,1.5-0.2,2.3C1063.9,360,1063.7,358,1062.9,357.7z M1062.5,360.6c-0.2,0.6-0.4,2,0.4,2.1
			C1062.8,362,1063.2,360.7,1062.5,360.6z M1040.5,296.5c-0.2,0.7,0.3,0.7,0.8,0.6C1041.3,296.5,1041,296.4,1040.5,296.5z
			 M557.4,514.2c-0.1,0.8,0,0.8-0.4,1.5c0.6-0.5,2.1-0.2,2.1-1.3C558.8,514.1,558,514.2,557.4,514.2z M551.7,515.9
			c1.4,0.8,2.3-1.3,3.7-0.4c-0.1-0.5,0.4-0.5,0.2-1C553.8,514.5,551.9,514.3,551.7,515.9z M505.7,510.6c0.3,0.3,1.4,0.4,1.2-0.4
			C506.4,510.2,505.7,510.1,505.7,510.6z M422.7,509c-0.2,1.4,1.9,0.8,1.9,0C424.2,508.4,423.3,509,422.7,509z M224.3,516.8
			c0.2,0.5,2.4,0.9,2.3-0.2C225.9,516.5,224.6,515.9,224.3,516.8z M198.1,516.1c-0.3,0.3-0.3,1.2,0.4,1
			C198.9,516.9,198.9,516,198.1,516.1z M194.4,516.3v0.6c0.2,0.2,0.7,0.2,1.2,0.2C196,516.1,194.9,515.8,194.4,516.3z M191.3,517.2
			c0.4,0.3,1.7,0.3,2.1,0c0-0.3,0.1-0.5,0.2-0.6C193,515.3,191.3,515.7,191.3,517.2z M183.9,515.9c-0.4,0.8-0.1,2.3,1,2.1
			c0.6-0.8-0.5-1.2-0.4-2.1H183.9z M110.8,205.1c0-1.1-0.5-1.6-1.4-1.7c-0.4,0.6-0.4,2.4,0.6,2.3
			C110.4,205.7,110.5,205.3,110.8,205.1z M110.4,211c0.2-0.7-0.3-0.7-0.6-0.9c-0.1,0.3-0.3,0.4-0.4,0.6
			C109.6,211,109.9,211.1,110.4,211z M110.4,207.8c0-0.5,0-1-0.2-1.3c-0.4,0-0.5,0.2-0.8,0.2v1.1C110,208,109.8,208,110.4,207.8z
			 M110.6,196.1c-0.5-0.8-1.4-0.1-2.1,0v1.1C109.2,197.3,110.2,196.7,110.6,196.1z M96.7,521c0,0.3-0.3,0.4-0.4,0.6
			c0.2,0.2,0.6,0.3,1,0.2C97.4,521.1,97,521.1,96.7,521z M104.6,106.4c0,0.4-0.6,0.3-0.4,0.8c0.3,0.1,0.3,0.3,0.6,0.4
			C105.1,107.4,105.2,106.4,104.6,106.4z M86.1,289.6c-0.1-0.5-5.3-0.2-5.2,0.2C81,290,86.2,290.4,86.1,289.6z M6.6,509.8
			c0.1,0.8-0.4,0.9-0.2,1.7c1.2,0.3,1.1-0.7,1-1.7H6.6z"/>
		<g>
			<g>
				<path class="st0" d="M159.8,33.2c0-2.8-1.3-4.2-3.9-4c-0.5,0-0.9,0.1-1.4,0.2c-0.5,0.1-0.7,0.4-0.7,1v11.2
					c0,1.2,0.4,1.9,1.3,1.9h1.1c1.9,0,3.1-1.3,3.5-4C159.7,38.6,159.8,36.5,159.8,33.2 M172.9,72.2c0.3,0.9,0,1.4-0.9,1.4
					c-0.7,0-1.9,0.1-3.5,0.1c-1.1,0-3.6-0.1-7.2-0.1c-0.6,0-1-0.6-1.2-1.7c-0.3-2.7-0.4-5.9-0.4-9.7c0-6.4-1.6-9.6-4.8-9.6
					c-0.2-0.1-0.4-0.2-0.6-0.2c-0.2,0-0.4,0-0.5,0.2c-0.4,0.1-0.6,0.5-0.6,1.4v9.4c0,1.9,0,4.7-0.1,8.3c0,1.1-0.3,1.7-1,1.7
					c-1.1,0.1-2.7,0.2-4.8,0.2c-1,0-2.5-0.1-4.5-0.1c-0.7-0.1-1.1-0.7-1.1-1.8V22.5c0-0.8,0.6-1.1,1.7-1.1h6h3.6h4.1
					c3,0,5.8,0.4,8.4,1.2c3.6,1.2,5.5,3,5.5,5.4v12.5c0,1.8-0.7,3.4-2,4.8c-1.3,1.4-2.9,2.3-4.8,2.7c-0.5,0.1-0.7,0.2-0.7,0.4
					c0.1,0.1,0.3,0.2,0.7,0.3c1.2,0.3,2.5,0.9,3.7,1.6c2.8,1.7,4.2,5.9,4.2,12.7C172,67.2,172.3,70.3,172.9,72.2"/>
				<path class="st0" d="M192.4,60.3V34c0-2.6-0.9-3.9-2.6-3.9c-1.9,0-2.9,1.3-2.9,4v26.2c0,1.2,0.2,2.1,0.6,2.6s1.1,0.7,2.3,0.7
					C191.5,63.6,192.4,62.5,192.4,60.3 M204,63.1c0,7.2-4.9,10.9-14.7,10.9c-4.5,0-7.8-0.7-10-2c-2.7-1.7-4.1-4.7-4.1-8.8V33.2
					c0-4.5,1.3-7.8,3.8-9.8c2.2-1.8,5.7-2.7,10.3-2.7c4.8,0,8.3,0.7,10.5,2.2c2.8,1.8,4.2,5,4.2,9.6L204,63.1L204,63.1z"/>
				<path class="st0" d="M237.8,60.1c-0.1,4-1.2,7.2-3.5,9.7c-2.6,2.8-6.6,4.2-11.7,4.2c-5.5,0-9.4-1.5-11.7-4.5
					c-2-2.6-3-6.7-3-12.2V32.7c0-2.2,0.9-4.5,2.7-6.8c2.7-3.5,6.7-5.2,12.1-5.2c4.8,0,8.5,1.1,11.2,3.4c2.8,2.4,4.2,5.9,4.1,10.5
					c0,1.5-0.1,2.5-0.1,2.9c-0.1,0.8-1.1,1.2-3.1,1.2h-2.8h-3.3h-0.8c-1.1,0-1.7-0.4-1.7-1.1V33c-0.3-2.2-1.5-3.3-3.4-3.3
					c-2.5,0-3.7,3.8-3.7,11.4v18.2c0,1.4,0.3,2.6,0.8,3.6c0.7,1.4,1.7,2,2.9,2c2.3,0,3.5-2.2,3.5-6.8v-1.8v-0.7v-0.6
					c0-0.8,0.4-1.2,1.3-1.2h5.2h3c1.4,0.1,2.2,0.5,2.2,1.2C237.8,56,237.8,57.6,237.8,60.1"/>
				<path class="st0" d="M272.8,72.6c0.4,0.8,0.2,1.2-0.4,1.2h-12.6c-0.6,0-1.3-1.3-2.3-3.9l-0.7-2.1l-3.3-9c-0.2-0.7-0.4-1-0.6-1.1
					c-0.1,0-0.1,0.4-0.1,1.1c-0.1,1.1-0.2,3-0.2,5.8c-0.1,1.8-0.1,4.6,0,8.1c0,0.7-0.4,1-1,1h-9.1c-0.8,0-1.2-0.4-1.2-1.2V22.1
					c0-0.6,0.3-0.9,0.9-0.9c2.6-0.1,5.9-0.1,9.9,0c0.6,0,0.9,0.3,0.9,0.9l-0.5,13.8c0,0.3,0.1,0.4,0.3,0.4c0.2,0,0.3-0.2,0.4-0.6
					c0.6-1.8,2.3-6.3,5.1-13.7c0.2-0.6,0.6-0.9,1.2-0.9h10.8c0.9,0,1.3,0.3,1.3,0.9c0,0.2,0,0.3-0.1,0.4c-1.4,1.9-3.8,5.8-7.4,11.9
					c-3.7,6.2-5.5,9.5-5.3,9.8C260.6,47.9,265.2,57.4,272.8,72.6"/>
				<path class="st0" d="M304.5,61.8c0,4.3-1.7,7.5-5,9.6c-2.8,1.8-6.4,2.7-10.9,2.7c-4.4,0-8.1-1.1-11.1-3.4
					c-3.3-2.5-4.9-5.9-4.8-10.2v-3.4c0-0.9,0.4-1.4,1-1.4h1.8c0.8,0,1.9,0,3.5-0.1c1.5,0,2.7-0.1,3.5-0.1h1.8c0.6,0,0.9,0.6,0.9,1.7
					v3.2c0,3.1,1.2,4.7,3.7,4.7c1.9,0,2.9-1,3-3.2l0.2-3.7c0-1.1-1.6-2.8-4.8-5c-2.5-1.6-5.5-3.8-9-6.5c-3.3-2.7-4.9-5.1-4.9-7.3V34
					c0-4.5,1.7-7.9,5-10.2c2.9-2.1,6.7-3.1,11.4-3.2c4,0,7.3,0.8,9.9,2.6c2.9,2.1,4.4,5,4.4,8.9v6.4c0,0.7-0.3,1.1-1,1.1
					c-1.5,0.1-4.8,0.1-9.9,0c-0.8,0-1.2-0.3-1.2-1c0-0.5,0-1.2,0-2v-3.2c0-0.9-0.2-1.8-0.7-2.7c-0.5-0.9-1.2-1.3-2.1-1.3
					c-2.4,0-3.6,1.4-3.6,4.2v3.4c0,1.4,1.6,3.3,4.9,5.7c2,1.6,5.1,3.9,9.2,6.9c3.3,2.8,4.9,5.4,4.9,7.6L304.5,61.8L304.5,61.8z"/>
				<path class="st0" d="M337.5,29c0,0.6-0.5,1-1.5,1h-1.4h-1.4h-3.3c-1.3,0-2,0.3-2,0.9l0.2,41.6c0,0.7-0.3,1.1-1,1.2
					c-0.9,0.1-2.3,0.1-4.2,0.1c-2.2-0.1-4.3-0.1-6.2-0.2c-0.8,0-1.2-0.4-1.2-1.1V30.8c0-0.6-0.4-0.9-1.1-0.9h-6.9
					c-1-0.1-1.5-0.4-1.5-1c0,0.5-0.1-0.4-0.2-2.6c-0.1-0.7-0.1-1.4,0-2c0-0.6,0.1-1.1,0.2-1.5c0.2-1.1,0.8-1.7,1.7-1.7
					c7.7-0.1,17.1-0.1,28.3,0c0.9,0,1.3,0.4,1.4,1.2c0.1,1.4,0.1,2.6,0.1,3.6C337.6,26.5,337.5,27.5,337.5,29"/>
				<path class="st0" d="M352.9,56.1c-1-4.8-1.5-7.3-1.7-7.3c-0.3,0-0.7,1.1-1.1,3.2c-0.2,0.9-0.4,2.3-0.7,4.1
					c-0.1,0.2,0.5,0.4,1.8,0.4h0.8C352.6,56.4,352.9,56.3,352.9,56.1 M368.7,73.8c0.1,0.2-0.2,0.4-0.8,0.4h-4.8h-1.6H360h-2.8
					c-0.5,0-1.2-1.4-2.1-4.2c-0.3-1.2-0.8-3-1.4-5.3c-0.1-0.3-0.4-0.4-1-0.4h-3.5c-0.4,0-0.6,0.2-0.8,0.4c-0.7,2.9-1.4,5.9-2.2,8.9
					c-0.3,0.4-0.6,0.6-0.9,0.6h-11.2c-1,0-1.4-0.3-1.1-0.8l6.2-26.1c4-16.8,6.4-25.2,7.2-25.3c3.1-0.1,6.4-0.1,9.9,0
					c0.8,0.1,3,8.5,6.7,25.3c0.2,1,1.2,5.4,2.9,13.2L368.7,73.8z"/>
				<path class="st0" d="M390.8,33c0-2.9-1.3-4.2-3.9-4.1c-0.5,0-1,0.1-1.5,0.2c-0.5,0.1-0.8,0.4-0.8,1v11.2c0,1.2,0.4,1.9,1.3,1.9
					h1.1c1.9,0,3.1-1.3,3.5-4C390.7,38.3,390.8,36.2,390.8,33 M404,72.2c0.3,0.9,0,1.4-0.9,1.4c-0.7,0-1.9,0.1-3.5,0.1
					c-1.2,0-3.6-0.1-7.2-0.1c-0.6,0-1-0.6-1.2-1.8c-0.3-2.7-0.4-5.9-0.4-9.7c0-6.4-1.6-9.6-4.9-9.6c-0.2-0.1-0.4-0.2-0.6-0.2
					c-0.2,0-0.4,0.1-0.5,0.2c-0.4,0.1-0.6,0.6-0.6,1.4v9.5c0,1.9,0,4.7-0.1,8.4c0,1.1-0.3,1.7-1,1.7c-1.1,0.1-2.7,0.2-4.9,0.2
					c-1,0-2.5-0.1-4.6-0.1c-0.7-0.1-1.1-0.7-1.1-1.8V22.1c0-0.8,0.6-1.2,1.7-1.2h6h3.6h4.1c3,0,5.9,0.4,8.5,1.2
					c3.7,1.2,5.5,3,5.5,5.4v12.6c0,1.8-0.7,3.4-2,4.8c-1.4,1.4-3,2.3-4.8,2.8c-0.5,0.1-0.7,0.2-0.7,0.4c0.1,0.1,0.3,0.2,0.7,0.3
					c1.2,0.3,2.5,0.9,3.7,1.6c2.9,1.7,4.3,6,4.3,12.7C403.1,67.2,403.4,70.3,404,72.2"/>
				<path class="st0" d="M465.8,71.8c0,1.2-0.3,1.7-1,1.7h-2.5c-0.6,0-1-0.3-1.2-0.8c-0.2-0.5-0.6-1.3-1.1-2.2
					c-1,2-4.4,3.1-10.2,3.1c-6.3,0-10.7-1.1-13.3-3.3c-2.2-1.9-3.3-5.1-3.3-9.7V34.4c0-5.3,1.4-9,4-10.9c2.2-1.6,6.1-2.4,11.7-2.4
					c6.7,0,11.3,1.2,13.9,3.6c1.8,1.6,2.7,4.5,2.8,8.6c0.1,4.6,0.2,7.4,0.2,8.4c0,0.7-0.4,1.1-1.2,1.1h-4.1c-0.9,0-2.8,0-5.9-0.1
					c-0.8,0-1.2-0.3-1.2-1c0-1.6-0.2-4.1-0.4-7.5c-0.4-3.5-1.5-5.2-3.3-5.2c-2.3,0-3.4,1.7-3.4,5.1v27c0,0.9,0.4,1.8,1.1,2.8
					c0.8,1,1.5,1.5,2.4,1.5c2.4,0,3.6-2.3,3.6-7v-3.3c0-0.5-0.2-0.8-0.8-0.8h-2.2c-0.5,0-0.8-0.2-0.8-0.6v-6.2c0-0.6,0.5-1,1.4-1
					h5.7c1.3,0,3.9,0,7.7,0.1c0.9,0,1.4,0.3,1.4,1.1V71.8z"/>
				<path class="st0" d="M488.8,55.6c-1-4.9-1.5-7.3-1.7-7.3c-0.3,0-0.7,1-1.1,3.2c-0.2,0.9-0.4,2.3-0.7,4.1
					c-0.1,0.2,0.5,0.3,1.8,0.3h0.8C488.5,55.9,488.8,55.8,488.8,55.6 M504.6,73.2c0.1,0.2-0.2,0.4-0.8,0.4H499h-1.6h-1.5h-2.8
					c-0.5,0-1.2-1.4-2.1-4.2c-0.3-1.2-0.8-3-1.4-5.3c-0.1-0.3-0.4-0.4-1-0.4h-3.5c-0.4,0-0.6,0.1-0.8,0.4c-0.7,2.9-1.4,5.9-2.2,8.9
					c-0.3,0.4-0.6,0.6-0.9,0.6h-11.2c-1,0-1.4-0.3-1.1-0.8l6.2-26.1c4-16.8,6.4-25.2,7.2-25.3c3.1-0.1,6.4-0.1,9.9,0
					c0.8,0.1,3,8.5,6.7,25.3c0.2,1,1.2,5.4,2.9,13.2L504.6,73.2z"/>
				<path class="st0" d="M555.2,71.5c0,0.4,0,0.8-0.1,1.3c-0.1,0.5-0.4,0.8-1,0.9c-0.1,0.1-1.1,0.1-3,0.1c-1.6-0.1-4.3-0.1-8.3-0.2
					c-1,0-1.5-0.5-1.6-1.4c-0.1-0.6-0.2-1.4-0.2-2.4v-3.5V63c0-0.8,0-2,0.1-3.7c0.1-1.7,0.1-2.9,0.1-3.7v-1.3c0-0.9-0.1-1.3-0.4-1.3
					c-0.5,0-1,1.4-1.6,4.3c-0.3,1.8-0.7,3.5-0.9,5.2l-0.9,6c-0.3,1.5-0.5,2.6-0.6,3.2c-0.3,1.2-0.9,1.8-1.7,1.8
					c-1,0.2-2.3,0.3-3.8,0.2h-1.8h-1.3h-0.9c-0.8,0-1.6-2-2.2-5.9c-0.2-0.8-0.5-2.8-1-6.2c-0.7-4.4-1.1-7-1.4-7.8
					c-0.3-0.8-0.6-1.1-1-1.1c-0.2,0-0.4,0.4-0.4,1.3v12.2v5.8c0.1,1.2-0.4,1.8-1.4,1.8h-10.5c-1,0-1.6-0.9-1.8-2.8
					c0-1.3-0.1-2.6-0.1-4c-0.1-1.8-0.1-3.8-0.1-6.1c0-4.7,0.2-12.5,0.6-23.5l0.4-10.2c0-1.5,0-3.3,0.1-5.3c0.2-0.4,0.6-0.6,1-0.6h5
					c1.3,0,3,0,5.3,0c0.6,0,1.2,0.4,1.6,1.5c1.4,2.5,3,5.8,4.7,9.9c1.5,3.4,2.9,6.8,4.2,10.2c0.5,1.1,0.9,1.6,1.2,1.6
					c0.4,0,0.8-0.5,1.2-1.6c1.9-4.5,4.8-11.3,8.6-20.3c0.4-0.9,1.1-1.3,2.1-1.2h9.6c0.8,0,1.2,0.6,1.2,1.7c0.1,2.5,0.2,6.2,0.4,11.1
					l0.4,11.1C555.3,56.4,555.4,65.2,555.2,71.5"/>
				<path class="st0" d="M584.7,72.7c0,0.5-0.5,0.8-1.5,0.8c-5.2,0.2-9.3,0.2-12.1,0.2c-3.2,0-6.8-0.1-11-0.4c-0.7-0.1-1-0.4-1-1.2
					V21.9c0-0.5,0.3-0.7,1-0.7c3,0,6.1-0.1,9.2-0.1c2.8,0,7.3,0,13.6,0.1c1,0,1.5,0.2,1.5,0.7v3.5v2c-0.1,0.8-0.1,1.5-0.1,2
					c0,0.5-0.3,0.7-1,0.7h-10.5c-0.9,0-1.3,0.2-1.3,0.7c-0.1,3.5-0.2,5-0.2,4.6v5.4c0,0.4,0.3,0.7,1.1,0.8c0.7,0.1,1.8,0.1,3.2,0.1
					c1,0.1,2.8,0.1,5.4,0c0.7,0,1.1,0.2,1.2,0.7c0,0.2,0.1,0.7,0.1,1.7c0-0.2-0.1,1.3-0.3,4.7c0,1.1-0.1,1.8-0.1,2.3
					c0,0.6-0.3,0.9-0.9,0.9h-8.3c-0.6,0-1,0.3-1.1,0.9c-0.3,1.6-0.4,4.9-0.2,10.2c0,0.6,0.6,0.9,1.7,0.9h10.1c1,0,1.5,0.3,1.5,0.8
					v4.6C584.6,70.2,584.7,71.3,584.7,72.7"/>
				<path class="st0" d="M619,61.8c0,4.2-1.7,7.4-5,9.6c-2.8,1.8-6.4,2.7-10.8,2.7c-4.4,0-8-1.1-11-3.4c-3.3-2.5-4.9-5.8-4.8-10.1
					v-3.4c0-0.9,0.4-1.4,1-1.4h1.8c0.8,0,1.9,0,3.4-0.1c1.5,0,2.7-0.1,3.5-0.1h1.8c0.6,0,0.9,0.6,0.9,1.7v3.1c0,3.1,1.2,4.7,3.6,4.7
					c1.8,0,2.8-1.1,3-3.1l0.2-3.6c0-1.1-1.6-2.8-4.8-5c-2.5-1.6-5.5-3.7-9-6.4c-3.2-2.7-4.9-5.1-4.9-7.3v-5.5c0-4.4,1.6-7.8,5-10.1
					c2.9-2,6.6-3.1,11.3-3.1c4,0,7.3,0.8,9.8,2.6c2.9,2,4.4,5,4.4,8.8v6.3c0,0.7-0.3,1-1,1.1c-1.4,0.1-4.7,0.1-9.9,0
					c-0.8,0-1.2-0.3-1.2-1c-0.1-0.5-0.1-1.2,0-2v-3.1c0-0.9-0.2-1.8-0.7-2.7c-0.5-0.8-1.2-1.3-2-1.3c-2.3,0-3.5,1.4-3.5,4.2v3.4
					c0,1.4,1.6,3.3,4.8,5.7c2,1.6,5.1,3.8,9.2,6.9c3.2,2.8,4.9,5.3,4.9,7.6L619,61.8L619,61.8z"/>
				<path class="st1" d="M667.4,37.7c0.1-4.8-0.6-7.5-2.1-8c-0.6,0-1.3,0-2-0.1h-0.4c-0.3,0-0.7,0-1-0.1c-0.2,0-0.5,0-0.6,0.2
					c-0.2,0.2-0.2,0.5-0.2,0.7v5.9c0,1.9,0,4.6,0.1,8c0,0.4,0.3,0.7,0.9,0.9c0.3,0.1,0.7,0.1,1.2-0.1c1.5-0.1,2.4-0.4,2.8-1
					C666.9,43,667.3,40.9,667.4,37.7 M678.2,44.9c0,3.2-1.9,5.6-5.8,7.2c-3,1.3-6,1.9-9.2,1.9c-0.8,0-1.2,0.3-1.2,0.9v7.3l-0.1,10.2
					c0,0.7-0.3,1.1-1,1.1c-2,0.2-5.2,0.2-9.8,0c-0.8-0.1-1.2-0.3-1.2-0.8l-0.2-50.8c0-0.5,1-0.8,2.9-0.9h3.6c0.7,0,1.8,0,3.3,0.1
					c1.8,0.1,3.1,0.1,3.9,0.1c3.7,0,7,0.8,9.9,2.2c3.3,1.6,4.9,3.6,4.9,5.9L678.2,44.9L678.2,44.9z"/>
				<path class="st1" d="M700.5,33c0-2.9-1.3-4.2-3.9-4c-0.5,0-1,0.1-1.4,0.2c-0.5,0.1-0.8,0.4-0.8,1v11.2c0,1.2,0.4,1.9,1.3,1.9
					h1.1c1.9,0,3-1.3,3.5-4C700.5,38.3,700.5,36.3,700.5,33 M713.7,72.1c0.3,0.9,0,1.4-0.9,1.4c-0.7,0.1-1.9,0.1-3.5,0.1
					c-1.2,0-3.6,0-7.2-0.2c-0.6,0-1-0.6-1.2-1.7c-0.3-2.7-0.4-5.9-0.4-9.7c0-6.4-1.6-9.6-4.8-9.6c-0.2-0.1-0.4-0.2-0.6-0.2
					c-0.2,0-0.4,0-0.5,0.2c-0.5,0.1-0.7,0.5-0.7,1.4v9.5c0,1.9,0,4.7-0.1,8.4c0,1.1-0.3,1.7-1,1.8c-1.1,0.1-2.7,0.2-4.8,0.2
					c-1,0-2.5,0-4.5-0.2c-0.7-0.1-1.1-0.7-1.1-1.8V22.2c0-0.8,0.5-1.2,1.7-1.2h6h3.6h4.1c3,0,5.8,0.4,8.4,1.2c3.7,1.2,5.5,3,5.5,5.4
					v12.6c0,1.8-0.7,3.4-2,4.8c-1.3,1.4-2.9,2.3-4.8,2.7c-0.5,0.1-0.7,0.2-0.7,0.4c0.1,0.1,0.3,0.2,0.7,0.3c1.3,0.3,2.5,0.9,3.7,1.6
					c2.8,1.7,4.3,6,4.3,12.7C712.8,67.1,713.1,70.2,713.7,72.1"/>
				<path class="st1" d="M742.5,72.8c0,0.5-0.5,0.8-1.5,0.8c-5.2,0.1-9.3,0.2-12.2,0.2c-3.2,0-6.8-0.1-11-0.4c-0.7-0.1-1-0.4-1-1.2
					V21.9c0-0.5,0.3-0.7,1-0.7c3,0,6.1-0.1,9.2-0.1c2.8,0,7.3,0.1,13.6,0.1c1,0,1.5,0.2,1.5,0.7v3.5v2c0,0.8-0.1,1.5-0.1,2
					s-0.3,0.7-1,0.7h-10.5c-0.9,0-1.3,0.2-1.3,0.7c-0.1,3.5-0.1,5-0.1,4.6v5.4c0,0.4,0.3,0.7,1.1,0.8c0.7,0.1,1.8,0.2,3.2,0.2
					c1,0,2.8,0,5.4,0c0.7,0,1.1,0.2,1.2,0.7c0,0.1,0.1,0.7,0.1,1.7c0-0.2-0.1,1.3-0.3,4.7c0,1.1-0.1,1.8-0.1,2.2
					c0,0.6-0.3,0.9-0.9,0.9h-8.3c-0.6,0-1,0.3-1.1,0.9c-0.3,1.5-0.4,5-0.2,10.2c0,0.6,0.6,1,1.7,1H741c1,0,1.5,0.3,1.5,0.8v4.6
					C742.5,70.3,742.5,71.3,742.5,72.8"/>
				<path class="st1" d="M777,61.7c0,4.2-1.6,7.4-5,9.6c-2.8,1.8-6.4,2.7-10.9,2.7c-4.4,0-8-1.1-11-3.4c-3.3-2.5-4.9-5.8-4.8-10.1
					v-3.4c0-0.9,0.4-1.4,1-1.4h1.8c0.8,0,1.9,0,3.4-0.1c1.5,0,2.7-0.1,3.4-0.1h1.8c0.6,0,0.9,0.6,0.9,1.7v3.1c0,3.1,1.2,4.7,3.7,4.7
					c1.8,0,2.8-1,3-3.1l0.2-3.6c0-1.1-1.5-2.8-4.8-5c-2.5-1.6-5.5-3.7-9-6.4c-3.2-2.7-4.9-5.1-4.9-7.3V34c0-4.4,1.7-7.8,5-10.1
					c2.9-2,6.6-3.1,11.3-3.1c4,0,7.3,0.8,9.8,2.6c2.9,2,4.4,5,4.4,8.8v6.3c0,0.7-0.3,1-1,1.1c-1.4,0.1-4.7,0.1-9.9,0
					c-0.8,0-1.2-0.3-1.2-1c-0.1-0.5-0.1-1.2,0-2v-3.1c0-0.9-0.2-1.8-0.7-2.7s-1.2-1.3-2-1.3c-2.4,0-3.5,1.4-3.5,4.2v3.4
					c0,1.4,1.6,3.3,4.9,5.7c2,1.6,5.1,3.8,9.2,6.9c3.2,2.8,4.9,5.4,4.9,7.6L777,61.7L777,61.7z"/>
				<path class="st1" d="M806.2,72.9c0,0.5-0.5,0.8-1.5,0.8c-5.3,0.1-9.3,0.2-12.2,0.2c-3.2,0-6.9-0.1-11-0.4c-0.7-0.1-1-0.4-1-1.2
					V21.8c0-0.5,0.3-0.7,1-0.7c3.1,0,6.2-0.1,9.3-0.1c2.8,0,7.4,0,13.7,0.1c1,0,1.5,0.2,1.5,0.7v3.5v2c-0.1,0.8-0.1,1.5-0.1,2
					s-0.3,0.7-1,0.7h-10.5c-0.9,0-1.3,0.2-1.3,0.7c-0.1,3.5-0.2,5-0.2,4.6v5.4c0,0.4,0.4,0.7,1.1,0.8c0.7,0.1,1.8,0.1,3.2,0.1
					c1,0,2.8,0,5.4,0c0.7,0,1.1,0.2,1.3,0.7c0,0.1,0.1,0.7,0.1,1.7c0-0.2-0.1,1.3-0.3,4.8c0,1.1-0.1,1.8-0.1,2.3
					c0,0.6-0.3,0.9-1,0.9h-8.3c-0.6,0-1,0.3-1.1,1c-0.3,1.5-0.4,5-0.2,10.2c0,0.6,0.6,0.9,1.7,0.9h10.2c1,0,1.5,0.3,1.5,0.8v4.6
					C806.2,70.4,806.2,71.5,806.2,72.9"/>
				<path class="st1" d="M843.6,22.7c0-1.1-0.1,2.4-0.1,10.6l-0.4,38.7c0,1.1-0.5,1.7-1.5,1.9c-2.9,0.4-6,0.4-9.2,0
					c-1.2-0.2-1.9-0.6-2.1-1.3c-1.6-4.9-3.9-12.2-7.1-22c-0.3-0.6-0.7-0.9-1.1-0.9c-0.4,0-0.6,0.4-0.6,1.3v9.2v3.7v3.2V72
					c0,0.9-0.8,1.4-2.3,1.6c-0.9,0.2-2.2,0.2-4.1,0.2h-3.4c-1.5-0.2-2.3-0.7-2.3-1.5c-0.1-1.8-0.2-5.5-0.3-11.3
					c0-3.9,0-9.1,0.1-15.8c0.2-11.5,0.4-18.9,0.7-22.4c0.1-1,0.5-1.5,1.2-1.6c1.2-0.1,3.1-0.1,6,0c0.4,0,1.6,0,3.6,0.1l1.4,0.1
					c0.9,0,1.4,0.4,1.7,1.3c1,3.4,1.9,6.8,2.9,10.2c1.2,3.9,2.4,7.3,3.5,10c0.5,1.2,0.9,1.7,1.2,1.7c0.4,0,0.6-0.7,0.4-2
					c-0.2-2.6-0.3-9.2-0.3-19.9c0-1,0.6-1.5,1.8-1.5h8.5C843,21.2,843.6,21.7,843.6,22.7"/>
				<path class="st1" d="M878.3,29c0,0.6-0.5,0.9-1.5,0.9h-1.4H874h-3.3c-1.3,0-2,0.3-2,1l0.2,41.7c0,0.7-0.3,1.1-1,1.2
					c-0.9,0.1-2.3,0.1-4.2,0.1c-2.2-0.1-4.3-0.1-6.3-0.2c-0.8,0-1.2-0.4-1.2-1.1V30.8c0-0.6-0.4-0.9-1.1-0.9h-6.9
					c-1-0.1-1.5-0.4-1.5-1c0,0.5-0.1-0.4-0.2-2.6c0-0.7,0-1.4,0-2c0-0.6,0.1-1.1,0.2-1.5c0.2-1.1,0.8-1.7,1.7-1.7
					c7.7-0.1,17.2-0.1,28.3,0c0.9,0,1.3,0.4,1.4,1.2c0.1,1.4,0.2,2.6,0.2,3.6C878.4,26.5,878.4,27.5,878.3,29"/>
				<path class="st1" d="M911.1,61.7c0,4.2-1.7,7.4-5,9.6c-2.8,1.8-6.4,2.7-10.9,2.7c-4.4,0-8-1.1-11-3.4c-3.3-2.5-4.9-5.8-4.8-10.1
					v-3.4c0-0.9,0.4-1.4,1-1.4h1.8c0.8,0,1.9,0,3.5-0.1s2.7-0.1,3.5-0.1h1.8c0.6,0,0.9,0.6,0.9,1.7v3.1c0,3.1,1.2,4.7,3.6,4.7
					c1.8,0,2.8-1,3-3.2l0.2-3.7c0-1.1-1.5-2.8-4.8-5c-2.5-1.6-5.5-3.7-9-6.4c-3.2-2.7-4.9-5.1-4.9-7.3V34c0-4.4,1.7-7.8,5-10.2
					c2.9-2,6.6-3.1,11.3-3.1c4,0,7.3,0.8,9.8,2.6c2.9,2,4.4,5,4.4,8.8v6.3c0,0.7-0.3,1-1,1.1c-1.5,0.1-4.7,0.1-9.9,0
					c-0.8,0-1.2-0.3-1.2-1c0-0.5,0-1.2,0-2v-3.1c0-0.9-0.2-1.8-0.7-2.7c-0.5-0.9-1.2-1.3-2.1-1.3c-2.4,0-3.5,1.4-3.5,4.2V37
					c0,1.4,1.6,3.3,4.9,5.7c2,1.6,5.1,3.8,9.2,6.9c3.2,2.8,4.9,5.4,4.9,7.6L911.1,61.7L911.1,61.7z"/>
			</g>
		</g>
		<g>
			<path class="st0" d="M928.8,228.6c1.3-1.8-1.7-2.8-0.8-4.2c1.7,0.2,1.4,2.4,3.4,2.3C931.3,228,929.7,229.2,928.8,228.6
				 M926.9,167.8c1.7-0.5,2.4,1,1.5,1.9C927.4,169.7,926.8,169.1,926.9,167.8 M925,157.1c0.7-2.1,2.6-3,4.2-4.2
				C930.9,154.3,926.7,157.7,925,157.1 M922,193.2c0.7,0.1,1.9-1.1,2.3,0C924.8,194.4,921.5,194.4,922,193.2 M920.5,187.4
				c1.1,0.1,1.6,0.7,1.5,1.9h-1.9C920,188.5,920.2,187.9,920.5,187.4 M923.1,119c0.1,1-0.5,1.2-1.5,1.2
				C921.7,119.1,922.5,118.3,923.1,119 M909.6,251.3c-6.7,0.8-15.3-0.2-23.7,0.8c-0.4-9,0.4-17.8,0.4-26.5c0-10.1-2-19.4-1.5-29.2
				c1.2-22.8-0.5-45.6-0.8-68.8c8.9-0.7,20.1-1.2,24.5,2.7c-0.4,1.2-2-1.1-1.5,1.2c1.6,21.2-0.1,43.6,0,65c0,5.1-0.7,9.9-0.4,14.6
				c0.4,5.6,2.1,10.9,2.6,16.5c0.2,2.4-0.2,4.7,0,6.9c0.2,1.7,0.6,4.3,2.3,5.4C909.2,242.4,910,247.6,909.6,251.3 M887.7,265.5h1.9
				C890,267.1,887.7,266.6,887.7,265.5 M881.3,100.2c0.9-1,1.1-2.7,3-2.7C884.2,99.1,882.1,100.4,881.3,100.2 M882.5,245.5
				c-1.2,0.3-1.2-0.6-1.9-0.8c0.1-1.1,0.7-1.6,1.9-1.5C882.3,244.4,883.3,244.7,882.5,245.5 M878,260.1c-2.1-0.1-3.5-1-4.9-0.8
				c-0.3-1.2,0.7-1.1,0.4-2.3c2.6,0.5,3.5-1.4,4.9,0C878.6,258.5,877.9,258.9,878,260.1 M894.1,102.9c-0.2,1.6-0.8,1.4-2.3,1.2v-1.2
				C892.8,102.8,893.4,102.1,894.1,102.9 M893,94.4c3.3-5.7,4.2,2.4-1.5,0.4C891.4,93.2,892.3,94.6,893,94.4 M860.2,175.5
				c1.5-1,3.6,0,3.4,1.9C861.8,177.6,860.4,177.1,860.2,175.5 M860.6,237.8c-1.1-0.7,0.1-2.2,1.1-1.9
				C861.9,237.1,860.7,236.9,860.6,237.8 M859.1,101.7v-1.5h1.1C860.3,101.2,860.1,101.8,859.1,101.7 M856.5,272.8
				c0.4-0.3,1-0.5,1.9-0.4C858.9,273.6,856.2,274.2,856.5,272.8 M943.9,145.9c-0.6-6-0.9-15-1.1-21.9c-0.1-2.6,0.5-4.6,0-6.2
				c-1-3.3-5.5-6.6-7.5-10c-2.6-4.4-5.5-13.2-9.1-14.6c-3.1-1.3-11.6-0.9-16.2-1.2c-15.4-0.9-30.2-1.3-45.2-1.9
				c-10.8-0.4-23.3-2.3-30.9-1.5c-0.7,3.1-0.2,6.7,1.5,8.4c-2.8,4.9-0.6,11.6-0.8,16.9c-0.1,4.2-1.2,8.1-1.9,11.5
				c4,3.7,12,1.1,18.1,2.3c1.4,21.9,1.7,45,0.8,68c-0.8,18.4,1.2,36.5-1.1,53.4c-4.8,0.2-10,0.3-15.5,0.8
				c-0.2,12.8,1.1,24.2,2.3,36.5c28.1-0.6,59.1-2,87-1.5c4.4-3.6,7-10,10.9-14.6c2.7-3.2,8-5.9,8.7-10c0.7-4.2-0.8-9-1.1-13.4
				c-0.6-8.2,0.6-16.8,0-25.4c-0.1-1.2-2.5,1.2-2.3-0.8c-0.8-2.4,2-4.4,2.7-6.1c0.8-2.1,0-3.8,0-6.9c0.1-10.7-0.2-27.5,0.7-43.4
				C944.2,158.3,944.4,151.5,943.9,145.9"/>
			<path class="st0" d="M802.7,173.6c-1.9-1.2-1.8,1.2-2.9,1.9c-0.7-1.2,0.9-2.2,0-4.1c1.4,0.8,1.7-0.4,3.3-0.4
				C802.6,172.1,803.6,172.2,802.7,173.6 M800.1,233.9c0,0.9-1.2,0.1-1.5,0c1-0.7,0.6-2.7,2.2-2.6
				C801.1,232.4,798.8,232.9,800.1,233.9 M792,174c1.3-0.2,1.6,0.6,2.2,1.1C793.8,175.8,791.5,175.4,792,174 M767.1,213.7
				c1.6-11.4,4.6-23.3,5.5-34.1c2.8-3.1,2-7.9,3.3-12.7c4.1,15.4,6.9,32.6,10.6,47.2C779.5,214.7,773.7,214.6,767.1,213.7
				 M762.3,242.5c0.3-1.2-0.3-1.4-0.8-1.9c0.3-2,2.3-2.7,1.1-5.2c1.8,0.3,1.3-1.7,1.8-2.6c1.7,0.5,2,0.8,3.7,0
				C768.8,237.1,766.1,241.3,762.3,242.5 M760.1,158.3h1.5c0.2,1,0.4,2.1,1.8,1.9c-0.4,0.5-0.4,1.4-0.7,1.9
				C760.7,161.9,760.3,160.2,760.1,158.3 M763.4,154.5c0.9-0.1,1.2-1.4,2.2-0.4c0,0.7-0.5,0.8-0.4,1.5
				C764.2,155.7,763.2,155.7,763.4,154.5 M766.3,159.4c-0.6,0-1.4-0.2-1.5,0.4c-0.9-0.1-0.2-1.7,0-1.9h1.5V159.4z M767.4,178.9
				c-0.4,1.7-1.7,2.5-2.9,3.4c-0.8-0.6-1.5-1.2-1.5-2.6C764.2,178.9,765.8,178,767.4,178.9 M759,162.8c-2.7-0.6,0.3,2.7-2.6,2.2
				c0-2.4,1.3-3.4,2.9-4.1C759.5,161.8,758.7,161.7,759,162.8 M728.9,263.1c-0.4-1.2,0.6-0.9,0.7-1.5c0.5,0.1,0.3,0.9,0.4,1.5H728.9
				z M813.3,196.4c-3.8-25.3-10.2-49.5-15-73.7c-3.3-3-3.2-8-4-13.1c-0.9-5.2-3.5-10.2-4-15c-13-1.8-26.1,1.6-37.4,1.1
				c-2.7,7.1-1.3,14.9-3.3,22.1c-0.7,2.5-2.6,4.3-2.9,7.1c-0.3,2.2,0.4,4.8,0,7.1c-0.4,2.2-2,4.3-2.6,6.4
				c-1.8,6.8-3.4,15.4-4.8,23.2c-1,6-2.5,12.4-2.6,18c-0.2,15.1-3.2,28.3-4.8,43.1c-0.5,4.9-2.9,12.5-2.2,17.2
				c0.1,0.6,1.2,1.5,1.1,1.9c0,0.1-1.4,1.7-1.5,1.9c-0.3,0.9-0.7,2.4-0.8,3c-1.9,12.3-2,25.3-4.8,37.1c10-0.1,20.2,0.2,29.7-0.8
				c3.1-10.5,2.7-22.5,6.6-32.2c9.9-2.2,20.6-0.4,31.9-1.9c3.7,6.4,3.3,16,5.1,22.5c1.4,4.8,2.6,8.9,4.4,12.7c8.6-1.3,17,0,25.7-0.8
				c-2.9-25.1-7.8-49.3-11-73.7C815.6,205.1,814,200.9,813.3,196.4"/>
			<path class="st0" d="M703,261c-1.3,0-1.4-1.1-1.5-2.3c0.9-0.1,1.4,0,1.9,0.4C703.5,260,703.3,260.6,703,261 M690.1,277.3
				c1-0.1,1.6,0.1,1.5,1.2C690.6,278.6,689.7,278.6,690.1,277.3 M649.1,192.6c-0.1-1.3,1.5-1.9,2.3-1.2
				C651.3,192.9,650.1,193,649.1,192.6 M640.8,179.4c-1.2-0.3-1.2,0.6-1.5,1.1c-0.4-0.1-0.2-0.8-0.8-0.8c0.5-0.8,1.2-1.3,2.3-1.6
				V179.4z M628.7,272.7c-0.4-0.1-0.3-0.8-0.8-0.8c0.7-1,1.9-1.7,3-1.2C630.5,271.7,629.2,271.8,628.7,272.7 M624.5,106.3h-1.1
				c-0.2-0.8,0.2-1,0.4-1.5C624.9,104.4,624.4,105.7,624.5,106.3 M621.8,171.3c0.2-1.1,1-1.5,2.3-1.6
				C624.1,171,623.2,171.5,621.8,171.3 M656.3,201.1v2.3c-2.2,0.3-2.6-1.2-3-2.7C654.3,199.7,655.2,201.1,656.3,201.1 M679.1,195.3
				c0.5,0.4,1.4,0.4,1.9,0.8c-0.7,0.4-1.3,1-2.3,1.2C677.8,196.3,679.3,196.5,679.1,195.3 M681.7,190.3c1.5,0.7,4.2,0.1,4.2,2.3
				c-1.3,1-2.9,2.5-4.5,1.2C681.8,192.3,681.4,191.1,681.7,190.3 M651.8,242.5c-0.8-11.7-0.2-26.9-0.4-37.9c12-1.7,29-0.2,40.9-2.7
				c-1.2-10.9,3.2-23.5,0-31.7c-0.4-1.6,2.6-0.8,1.1-2.3c-11.5-4.2-27.7-3.5-41.7-4.2c-0.7-9.1-2.5-22.3,0-30.9
				c6.6-1.3,14.2-1.8,22.4-1.6c1.9-0.6,1.2,1.3,2.7,1.2c0.5-1.7,1.5-1.1,2.3-1.2c3.3-0.5,7.5,0.1,11.4-0.4
				c6.3-0.7,11.9-2.1,17.8-1.5c0.4-2.8,3.8-2,4.9-3.1c-0.6-11.7,0-24.5-2.7-34c-31.5-1-59.8,1.3-92.5-0.4c-2.1,8,0.2,16.8-0.4,25.1
				c-0.5,8.2,0.9,15.8,1.5,24c0.4,6-0.5,12.1-0.8,18.6c-0.3,5.8,0.4,11.8,0.4,17.4c0,14.9-1,27.8,1.5,39.1
				c-0.1,18.7-0.4,44.8,2.7,66.1c18.1,0.2,36.5-0.4,56.1,0.4c0.7-0.2,0-1.8,1.5-1.1c3.1,0.9,6.4,0.2,9.1,0
				c9.1-0.5,19.5,1.3,26.5-1.2c-0.5-2.8-1.6-2.4,0.4-3.5c-2.5-14.5,1.7-25.7,2.7-38.7C698.6,241.3,675.3,243.1,651.8,242.5"/>
			<path class="st0" d="M605.2,216.3h-1.5c-0.4-1.4,1.4-0.6,1.1-1.9C606,214.8,605,215.1,605.2,216.3 M604.4,273.6H603
				c-0.2-1.2,0.3-1.7,1.5-1.5V273.6z M603.7,178.1h1.5c0.2,1.3-0.1,2.1-1.5,1.9V178.1z M592,257.1c-0.3-0.2-0.6-0.4-1.1-0.4
				c-0.1-1.3,0.5-1.9,1.8-1.9C593,256.1,592.3,256.4,592,257.1 M588.6,215.9c-0.5,1.4,1.7,0.1,1.1,1.5c-2.4-0.2-3.7-1.5-4.8-3
				c0.5-1.1,2.3-0.7,3.7-0.8c0,1.1,0.7,1.6,1.5,1.9C590,216.1,589.2,215.9,588.6,215.9 M576.5,247.8c-5.9,1.1-14.3-0.4-20.2,0.7
				c0.1-16.7-1-38.3-0.7-56.9c-0.9-0.5-3.4-1.2-4.4-1.5c0.9-0.9,2.9-1.7,4-3.4c-0.3-20.2,2.1-37.9-0.4-56.1c3.9-2,11.6,0.4,16.5-0.4
				c0.5,22.3,0,46.4,1.8,68.1c0.2,3-0.4,6.1,0,9c0.4,2.9,2.3,6,2.6,9c0.2,1.9-0.4,3.7-0.4,5.6C575.7,230.6,577.6,239.7,576.5,247.8
				 M552.7,249.6c-1.3-0.8,0.8-2.3,1.5-1.1C554.3,249.5,552.8,248.8,552.7,249.6 M550.5,192.3c0.5-0.6,2.1-0.6,1.8,0.8
				c-0.6-0.1-0.8,0.5-1.5,0.4C550.7,193.2,550.5,192.9,550.5,192.3 M549.4,183.4c1.3,0.3,1.8-0.9,2.6,0
				C551.6,184.2,549.1,185.1,549.4,183.4 M545,178.9c-0.1-1.5,0.7-2,2.2-1.9C547,178.1,546.4,178.9,545,178.9 M546.5,192H545
				c0.2-0.6,0.5-0.9,0.7-1.5C546.4,190.6,546.5,191.1,546.5,192 M538.4,178.5c0.3-1.4,3.9-3.2,4.4-1.1
				C540.8,177.1,540.5,180.1,538.4,178.5 M541.3,184.1c-0.2-0.8,0.2-1,0.4-1.5c0.8-0.1,1.2,0.3,1.1,1.1
				C542.1,183.7,542,184.2,541.3,184.1 M531.4,272.8c0.3-0.7,1.3-1,1.8-0.4C533.2,273.4,531.9,273.3,531.4,272.8 M524.4,185.2
				c0.6-1.2,2.2-2.8,3.7-1.9C527.8,186.5,525.8,183.9,524.4,185.2 M523,179.6c0.2-0.3,0.4-0.6,0.4-1.1h1.5
				C525,179.7,524,179.7,523,179.6 M524.4,99.9h1.1c0.1,1-0.1,1.6-1.1,1.5V99.9z M611.4,119.3c-0.1-2.6-1.6-5.3-0.7-7.9
				c-1.8-4.1-5.9-7.5-9.5-11.2c-3.4-3.5-6.8-8.2-11-9.7c-7.4-2.8-18.7,1.5-27.9,1.5c-7.2,0-13.7-1.1-20.9-0.4
				c-1.3,0.3-0.2-1.8-1.8-1.1c-13.1,0.1-27.6-2.5-39.6-1.9c-0.7,3-0.1,6.5,1.5,8.2c-2.7,4.8-0.6,11.3-0.7,16.5
				c-0.1,4.1-1.2,7.8-1.9,11.2c3.9,3.6,11.7,1.1,17.6,2.2c1.2,16.9,3.1,33,1.5,50.9c-0.7,1.7,1.3,0.6,1.5,1.5
				c-3.2,10-1.2,21.6-0.7,32.2c0.5,11.5,0.4,24-0.4,35.9c-4.9,0.1-11.9-1.9-16.1,1.1c-0.5,11.9-1.9,27.4,3.3,35.9
				c15.5,0.8,30.4,0.5,45.1-1.1c9,1.2,21.2,0.3,31.2,0.8c2.2,0.1,4.5,0.8,6.6,0.4c3-0.6,7.1-4.3,10.7-6.4c4.7-2.8,9.8-6.7,12.1-10.1
				c3.3-5,0.2-10.7,0.4-17.2c0.1-3.2,1.4-6.5,1.5-9.7c0.2-7.2-0.3-14.9-0.8-22.5c-0.4-7.3,0.2-14.2,0.8-21.7
				c0.3-4.6-0.8-9.2-1.1-13.9c-0.5-6.9,1.2-11.7,1.5-17.6c0.4-7.4-0.8-15.4-1.5-22.8C611.1,134.2,611.8,126.3,611.4,119.3"/>
			<path class="st0" d="M355.1,105.4c-2.2,0.3-3.1,2-4,3.7C352.9,108.3,354.5,107.4,355.1,105.4 M354,121.3c0.8-0.8-0.1-2.1-1.4-1.8
				C352.8,120.3,352.9,121.3,354,121.3 M364.9,266.4c-0.4-0.3-1-0.5-1.8-0.4c-0.4,0.9-0.5,2.2-0.7,3.3
				C363.8,269,364.4,267.7,364.9,266.4 M369.6,169.5c-0.7-0.9-0.8-2,0-2.6c-2.3-1.1-4.4,0.4-4.3,2.9
				C366,171.1,368.6,170.4,369.6,169.5 M374.2,166.2c-1-0.2-3.8,0.8-4.7,1.8C371.8,168.1,373.5,167.6,374.2,166.2 M385.5,168.8
				c0.1-0.7-0.4-0.8-0.4-1.5h-1.4c-0.3,0.4-0.5,1-0.4,1.8C384.4,169.6,384.5,169.3,385.5,168.8 M389.8,200.1
				c0.1-1.2-1.3-0.9-1.8-1.5C387.7,199.9,388.7,200.1,389.8,200.1 M389.4,155.5c1.1,0.5,2-1,1.1-1.5
				C390.1,154.5,389.5,154.8,389.4,155.5 M416.5,190.1c0.1-5.5-1.8-11-2.2-16.6c-0.9-15,1.5-30,1.8-45.7c-4,0-12-0.5-17,0.7
				c1.8,39.2-0.8,80.8,1.1,120.1c6.9-0.3,12.1-0.1,19.1-0.4c-0.5-17.8-4.1-35.3-3.6-52.7C415.8,193.8,416.5,192,416.5,190.1
				 M427.3,232.9c1.8,0.2,1.5-1.6,0.4-1.8C427.4,231.5,427.2,232,427.3,232.9 M442.8,199c1.5,0.2,2.3-0.4,2.2-1.8
				C443.8,196.1,442.4,197.2,442.8,199 M451.9,153.3c0.4-1.4-2.1-1.5-2.2-0.4c0.7,0,0.5,1,1.5,0.7
				C451.2,153.4,451.4,153.2,451.9,153.3 M456.9,183.5c0,8-0.8,16-0.4,23.9c0.7,12.9-0.4,26.6-0.4,40.1c0,8.7,1,13.2-2.5,18.8
				c-1.1,1.7-2.1,3.9-3.2,5.1c-2,2.3-5,3.7-6.9,5.9c-2,2.4-2.3,5.6-4.7,7.4c-30.3-2-61,0.8-90.6-0.4c0.3-13-1.1-26.1-1.8-37.6
				c4.4-1.2,10.1-1.2,15.5-1.5c2.5-37.5,0.5-77.5,1.1-117.1c-6.8,0.4-15.1,1.2-19.1-2.2c4.2-10.4,1.2-26.2,0.7-38.3
				c29.9,0.4,60.8,2.8,91,4.1c6.1,9.8,14,17.9,20.2,27.6c0.8,15.6,0.1,32.2,0,48.6C455.8,173.2,456.9,178.5,456.9,183.5"/>
			<path class="st0" d="M272.5,114.3c-0.7-0.1-0.3-1.4-1.1-1.5c-0.8,1-0.4,0.9-0.7,2.2C271.6,115.1,272.4,115.1,272.5,114.3
				 M310,193.4c0.2-1.1-0.3-1.6-1.5-1.5v1.5H310z M338.5,250.5c2,10.9,1.2,25.5-0.4,35.4c-31.1,0.2-65.2,2.5-94.9,1.5
				c-3.2-23.3-1.4-51.3-2.5-77.3c-0.4-10.1-1.7-21.2,1.8-29.1c-2.4-7.2-1.6-16.1-1.8-25.4c-0.2-7.9,0.4-16.6,0.4-25
				c0-13.8-0.4-26.4,1.4-37.6c9.4-0.5,21.4-0.5,31.8-0.4c22.2,0.3,46.7-3.1,63.5,4.1V133c-16.4-6.6-41.3-3.1-62.4-3.3
				c-0.9,11,0.2,26.3,1.4,37.6c13.8,0.2,27.3-1.4,41.1-2.2c1.9,9.8,1.5,23.1,1.8,34.2c0.1,2.1,0.6,4,0,5.9
				c-4.8-0.2-12.2,2.1-15.2-0.8c-3.3,1.8-9.3,2.4-14.1,1.5c2.9-1.5,10.8-2.6,6.5-7c-2.4,0.3-0.5,2.7-2.2,3.7
				c-3.7-0.2-4.9,2.3-6.1,3.7c-2.1,0.8-0.9-1.8-2.2-1.9c-2-0.1,0.1,1.8-1.5,2.2c-2.6-0.3-4.1,0.1-7.2,0c-2.2,8.6,1.7,16.8,1.1,25.1
				c-0.3,3.6-1.8,7-1.8,10.7c0,2.9,1,5.1,0.4,8.1c15.5,1.2,30.8-0.1,46.6-0.7c1.1,1.1-0.9,0.6-0.7,1.8c1.5-0.9,2.7,1.1,3.6-0.4
				c0.4-1.2-0.5-1.2-1.4-1.1C329.1,249.6,335.4,249.4,338.5,250.5"/>
			<path class="st0" d="M132.1,171.4c0.2-1.7,2.8-4.3,0.7-5.9c-1,1.7-1.7,3.7-4.3,3.7c0.3,1.3-0.7,1.5,0,2.2
				C130.1,171.2,130.5,170.9,132.1,171.4 M135.7,106.2c1.6,0.1,3.4-3.3,2.5-3.3c-0.5,0.9-1.6,1-2.5,1.5V106.2z M140,207.8
				c0.6-0.7,0.4-2.6-1.1-2.2C138.4,206.2,139,207.7,140,207.8 M147.9,248h-1.1c-0.3,1.2-1.6,4.1,0.4,4.4
				C147.5,250.5,147.6,250.2,147.9,248 M152.3,266c-0.1-0.9-0.2-1.7-1.4-1.5c-0.3,0.4-0.5,1-0.4,1.8
				C151.3,266.5,151.9,266.3,152.3,266 M153,99.5c-0.6,1.7,1.9,1.3,1.4,0H153z M157,93.6v-1.1c-0.8-0.1-1.4,0.1-1.4,0.8
				C156,93.4,156.2,93.8,157,93.6 M158.4,213.4c0.3-1.3-1.4-1.4-1.4-0.4C157.7,213.2,157.7,214.1,158.4,213.4 M159.1,98.8
				c0.9-1.7,1.7-1.3,1.8-3.7c-1-0.1-2.6-1.5-3.6-0.4c0.8-0.1,1.1,0.3,1.1,1.1c-0.4,0-0.4,0.3-0.7,0.4c-0.6-0.3-2-1.8-2.9-0.7
				c0.2,0.5,1.4,0.1,1.4,0.7c-0.7,0.7-2.4,0.2-2.9-0.4c-0.5-1.7,1.8-0.6,1.1-2.6c-2.3-0.5-2.2,1.5-2.5,2.9
				C153.8,98.9,156.4,98.3,159.1,98.8 M158.8,267.1c1.4,0.2,2.6-0.7,1.8-1.5c-0.9,0-1.1,0.6-2.2,0.4c0.2,1.8-1.5,1.6-1.4,3.3
				c1.4,0.2,1.4-1,2.9-0.7C160.2,267.4,158.9,267.8,158.8,267.1 M161.6,194.6c0.2-1.9-1.9-1.6-1.8,0
				C161,194.8,160.5,194.8,161.6,194.6 M160.2,100.3c1.7-0.2,2.1,0.6,3.2,0C163.4,98.5,160.6,99.2,160.2,100.3 M165.3,98.8
				c0.3-0.7,1.5-0.5,1.1-1.8h-1.4C165.1,97.5,164.5,98.9,165.3,98.8 M191.3,112.4c-0.1,1.7,1.1,3.6,2.5,2.6
				C193.2,113.8,192.4,113,191.3,112.4 M197,112.8c0.1-0.8-0.3-1.2-1.1-1.1c-0.1,0.5-0.5,0.7-0.4,1.5
				C196.3,113.2,196.4,112.8,197,112.8 M197.8,135.6c0.3-3.7,0.8-8.9,0-12.5c-10.6,0.8-24.5-1.7-32.8,1.5c0.2,3.2-0.7,7.6,0,11.1
				C176.4,136.4,185.9,134.4,197.8,135.6 M199.2,187.2c-1,0.2-0.7-0.8-1.1-1.1c-1.4,1.2-2.4-1.2-2.9,0.4c0.5,0.4,1.1,0.6,1.4,1.1
				c-0.6,0-1.1,0.1-1.4,0.4c0.1,2.6,0.3,2,0,4.4C197.7,191.8,197.9,188.9,199.2,187.2 M214,252.4c2.3,0.3,2.1-2,2.2-4.1
				C214.4,248.4,213.5,251.1,214,252.4 M230.2,125.7c-0.4,1.3,2,0.8,1.8,0C231.1,125.6,230.9,125,230.2,125.7 M237.8,285.2
				c1.7,4.4-7.1,2.6-6.9,1.8c-7.8,2.1-20.3-0.6-28.1,1.5c-7.2-15.5-11.1-33.3-15.9-51.2c-3.6-13.3-6.6-26.8-9-41.6
				c-1.2-7.5-4.1-14.6-4.3-23.6c-2.4-0.6-7.1-0.7-9,0.4c2.2,36.7,7.3,77,2.5,113.4c-10.5,0.9-21.2,1.5-32.5,1.5
				c-8.4-5.6-2.5-21-5.1-31.7c-0.3-1.3-1.3-2.8-1.4-4.1c-1.1-8.6,6.1-27.6-0.4-35.3c-0.8-3.3,0.2-6.2,0-9.6
				c-0.1-3.1-1.7-6.4-1.8-9.6c-0.5-10.1,2.2-20.7,1.8-30.2c0.7,1.5,1.6-1.6,1.4,1.1c1.7,0,0-3.4,1.1-4c-1.4-1.5-2.3,1.9-2.9,1.1
				c-0.8-3.4,1.8-3.4,2.9-4.8c-0.5-1-1.9,1.4-2.9,0c0-22.8-1.1-46.4,0.4-68.5c33.1,0.8,67.9-0.8,103.2,0.7c-2,8.6,2.4,14.9,3.2,22.5
				c0.4,3.7-0.7,7.3-0.7,11.8c-0.1,6.1,1.2,12.8,2.2,19.2c0.9,5.9,3,14,1.8,18.8c-2.4,9.3-13.9,4.1-23.5,5.5
				c1.2,10.6,4.9,18.6,6.1,29.1c-2.8,0.5-3.7,0.9-5.8,1.9c0.6,2.7,3.9,2.6,6.5,3.3c5,24.9,12.9,48.9,16.2,76.6
				c-1.1,0.7-2.8,0.8-4.7,0.7c1.1,1.6,2.6,2.4,1.1,4.8C235.2,288,236.4,284.1,237.8,285.2"/>
			<path class="st0" d="M946.5,436.3c1.7,0,2.5-0.9,2.5-2.6C947.5,433.8,946.6,434.7,946.5,436.3 M946.5,440.3
				c1.4,0.4,2.5-1.5,1.1-1.9C947.5,439.4,946.3,439.2,946.5,440.3 M950.8,402.8c-3.2,0.2-2.5,2.1-4.3,3.7
				C949.3,407.9,950.1,404.5,950.8,402.8 M950.8,434.8c-1.4-0.2-1.6,0.8-1.8,1.9C950.1,436.5,950.7,435.9,950.8,434.8 M950.5,396.1
				c1.1,0.2,1.6-0.3,1.4-1.5C950.8,394.5,950.3,395,950.5,396.1 M951.9,406.1c1.2,0.3,2.4-1.2,1.4-1.8
				C953,405,951.8,404.8,951.9,406.1 M951.6,441.1c-0.2,1.4,2.7,0.9,2.2-0.4C952.7,440.4,952.4,441.1,951.6,441.1 M954.8,403.5
				c0.8-1.5,1.3-2.3,0.7-4.4c-0.5,0-0.8-0.2-1.1-0.4c-0.2,1.1-2.8,1.9-1.8,3c1-0.7,0.3,0.6,0,1.5
				C953.5,403.9,953.4,403.7,954.8,403.5 M1028.1,451c-1.6-1.1-3,1.3-2.5,2.2C1027.4,453.5,1027.7,452.2,1028.1,451 M1027,449.5
				c1.2,0.1,2.3,0.9,2.2-1.1C1027.9,448.3,1027.6,449.1,1027,449.5 M1047.2,370.3c0.7,8.3-0.4,16.8-0.4,25.4
				c0,32.8-0.7,68.8-1.4,99.4c-7.4,1.8-19.1,1.1-28.2,0.4c-3-2.7-3.7-7.1-5-10.7c-10.1-25.8-20.4-53-31-78.8
				c-0.3,14.4-1,29.6-0.4,44.6c0.7,15,0.3,30.5-1.1,44.2c-10.1,1.3-20,1-30.7,0.4c-1.3-3-2-6.4-2.5-10c-0.5-3.4-1.7-7.4-1.8-10.7
				c-0.1-2.5,1-5.3,1.1-7.7c0.3-9.4-2.7-19.2-3.2-29.1c-0.6-10.4,0.2-21.7,0.7-32.8c1.4-32.1,0.7-66.6-1.4-97.6
				c13-0.4,24.8-1.6,37.2-0.7c3.2,15.9,8.3,29.7,14.8,42.7c6.5,13,10.3,26.9,15.9,41.2c1.3-6.8,0-13.8,0-21c0-20.8-0.3-41.2,0-62.2
				c10.2-0.7,24.6-1.4,34.3,0.4c2.7,4.5,1.7,9.9,1.8,15.1C1046.3,339,1045.9,354.3,1047.2,370.3"/>
			<path class="st0" d="M836.4,443.6c0.6,0.6,2.3,0.5,2.2-0.7c-0.3-0.5-1.2-0.5-1.8-0.7C836.9,442.9,836.4,443,836.4,443.6
				 M841.1,344.9c0.1-1-0.1-1.6-1.1-1.5C839.4,344.1,840.2,344.9,841.1,344.9 M842.2,412c0-0.5-0.5-0.5-0.4-1.1
				c-2.2-0.3-3.2,0.7-4.3,1.5c-0.3,2.1,0.6,3.5,0,4.8c1.1,0.2,1.3-0.4,2.2-0.4c0.2-1.4,0.3-1.5-0.4-2.6
				C840.6,413.8,841.8,413.3,842.2,412 M844,409c0.1-0.7,0.8-0.9,0.7-1.9c-1.3,0.9-5-0.6-4.3,2.2C842.2,409.7,842.5,408.1,844,409
				 M853,435.5h-1.8v1.5C852.1,436.8,852.9,436.5,853,435.5 M857,403.9c0.8-0.8,0.8-2.3,1.1-3.7c-1.8-0.7-3.2,0.3-4.7-0.7
				c0.4,1.4-0.9,1-0.7,2.2C855.3,401.2,854.2,404.5,857,403.9 M858.1,441.1c-0.5-0.6-2.1-0.5-1.8,0.7
				C857.2,441.9,858,441.9,858.1,441.1 M855.6,384c1.7,0.5,3.4-0.5,3.3-3C856.9,381.1,856.7,383.1,855.6,384 M861,420.1
				c1.5-4.2-2.4-5.1-3.6-7.7c-0.4,0.5-1,0.7-1.1,1.5c0.7,1.3,2.1,1.7,2.9,2.9c-2.2,1.8-3.7,0.9-5.8,3.3
				C857.1,420.7,858.9,418.1,861,420.1 M861.3,412.7c1.1-1.4-0.7-2.3-1.1-1.5C861,411.4,860.6,412.6,861.3,412.7 M862.8,409.8
				c1.5,0,2.2-1,2.5-2.2c-1.2-0.4-3.4-2.3-4,0C863,408,864,408,862.8,409.8 M864.2,455.4c-0.2-0.8,0.7-2.9-0.7-2.6
				C863,453.4,862.8,455.8,864.2,455.4 M909.7,393.2h-1.1c-0.2,2.6-3.5,2.8-5,2.9c0.2,1.3-1.7,1.2-0.7,2.2c2.7,0,2.8-2.8,6.5-1.8
				C908.3,394.5,909.4,395.2,909.7,393.2 M930.6,476.8c0.8-0.1,1.7-0.3,1.4-1.5C931,475.1,930.5,475.6,930.6,476.8 M935.7,425.2
				c-0.1,8.1,0.5,16.4,0.4,24.3c-0.1,3.5-1.5,6.9-1.5,10.3c0,1.9,1,3.5,1.1,5.1c0.2,3-1.3,5.8,0.4,8.9c-3.3,6.8-0.3,17-0.7,24.7
				c-8.5,0.4-17-1.1-25.3-1.1c-9.1,0-18.1,1.8-26,0c-1.6-11.2-4-26.1-1.1-36.8c1.1-0.5,1.6,0.2,3.2,0c-1.9,1.3-3.6,1.6-2.9,4
				c0.5,1.8,4.4,1.4,4.7,3.3c1.1,0,1.3-0.9,1.8-1.5c1.2,0,0.2,2.2,1.5,2.2c0.9-1.5,2.2-0.4,3.2-1.9c-1.2-1.8-3.5-3.7-6.5-2.6
				c0.9-1.4-0.9-1.9,0.3-3c1.2-1.1,1.6,0.7,2.9,0.4c1.2-0.4,1.8-1.6,3.2-1.8c1.6-0.3,3.4,0.2,5.1,0.4c1-18.3-2.7-38.5-1.5-59.7
				c0.5,0.8,0.9,0.8,1.5,0c-0.3-1.5-2.3-1.4-1.5-4.1c1.9-0.9,3.6-2,4.7-3.7c-1.8-1.4-2.6,1.5-4.7,1.1c-0.1-16.9,0.4-34.3-1.1-49.7
				c-8.9,0.3-16.9-0.7-25.3,0c0.1,17.1,0.5,36,0.3,54.9c-0.1,19.6,3.3,39.9,0.4,55.2c-0.4,1,0.7,1.6,0.4,0.7
				c0.5,1.6-0.2,3.6-0.4,5.6c5.4,0,6.2,2.8,6.1,8.8c-0.1,8.9,2.6,22.7,0.4,28.4c-12.1,1.2-26.4-0.9-39.7-0.7
				c-0.8-23.2-4.3-43.7-4-68.1c0.2-1.4,2.2-1,2.9-1.8c-1-3.3-0.8-6.1,1.1-7.7c-1-1-3.8,0.2-4.3-0.4c-0.5-2,1-2,1.1-3.3
				c0.1-1.4-1.5-1-1.1-2.6c0.5-15.5-2.1-31.3,0.4-44.9c0.4-2.4,1.7-4.4,1.8-6.6c0-1.4-0.7-2.7-0.7-4c-0.1-2.5,0.9-5.2,1.1-7.8
				c1-14.1-2.7-28.2-2.9-43.1c8.2-0.9,15.6,0.4,23.1,0c20.6-1.2,43.5,0,62.5,0c5.5,0,8.5,0,11.9,3.7
				C935.2,347.7,936.1,387.4,935.7,425.2"/>
			<path class="st0" d="M790.6,429.3h-1.1c0.5,3-3.6,1.5-4,3.7c1.9,0.4,2.5,0,4.7,0C790.2,431.5,790.2,430.2,790.6,429.3
				 M806.8,423.8c0.6,1.2,2.5,2.9,3.3,0.7C809.2,424.1,807.6,422,806.8,423.8 M813,428.2c-0.4-0.2-3-0.3-3.2,0.7
				C810.8,429.4,812.5,429.3,813,428.2 M821.3,419.4c-1.1,0.3-0.7,0.3-1.8,0v1.5c-2.2-0.1-3.8,0.5-4,3.3c1.4-0.1,1.7,0.7,2.5,1.1
				c-0.5-2,2.4-0.5,2.5-1.8C818.7,422,821,420.8,821.3,419.4 M820.6,388.8c1.7,0.6,2-2.1,0.3-1.9
				C820.6,387.4,820.4,387.9,820.6,388.8 M819.5,432.2c0.1-2.3,4.8-2,4-4c-0.1,0.6-0.6,0.8-1.5,0.7c0.3-2-0.9-2.5-2.2-2.9
				c-1.2,1.5-1.5,3.8-4.3,3.7c1.2,1.2-0.4,2.8-0.7,3.7c0.1,0.8,0.9,0.8,1.8,0.8c0.2-0.5-0.4-1.9,0.4-1.8L819.5,432.2L819.5,432.2z
				 M822.7,305.9c4.4,24.7,4.6,53.7,4.3,83.2c-0.9,0.2-2.6,1.3-4.3,1.1c-0.8,3.1,3,1.6,4.3,2.6c-0.5,9.8,1.2,21.9-1.5,29.5
				c0.7,0.4,1.5,0.7,1.1,2.2c0.4,24.9,1.6,51.9-1.5,74h-37.9c-1-8.2-2.7-17.1-2.2-25.8c0.9-13.6-2.3-28.9-1.7-40.9
				c0.2,0,0.3,0.1,0.2,0.4c0.4,0,0.4,0.3,0.7,0.4c0.3-1.9,2.6-1.8,3.6-3c-1.3,0.4-0.6-1.6-0.4-1.8c-0.8-0.6-1.1-0.8-2.2-0.4
				c-0.1,0.9,0.1,1.4,0.4,1.9c-1.5,0.1-1.5,1.8-2.4,2.5c0.1-1,0.1-1.9,0.2-2.9c-2.3-8.8,1.4-17.7,0.7-26.9
				c-0.5-6.5-0.4-14.8-0.4-22.5c0-6.2-1.3-13-1.1-19.1c0.3-6.5,1.4-13,1.8-19.5c0.7-11.5-1.6-23.4,2.2-33.9
				C799.1,306.8,810.2,305.9,822.7,305.9"/>
			<path class="st0" d="M724.2,329.1V328c-0.6,0-1.1,0.1-1.5,0.4C722.4,329.5,723.5,329,724.2,329.1 M757.4,342.7
				c0-1.6,2.2-2.2,1.5-3.3c-1.3-0.1-2.4,0.1-3.3,0.4C755.5,341.8,754.9,342.9,757.4,342.7 M774.3,306.3c2.2,11.2,4.2,30.9-1.1,39
				c-1.4,0.5-3,0.9-4,1.8c-7.1-2.1-17.3-0.8-25.3-0.4c-0.5,7,1.5,15.9,0.7,23.9c-0.2,1.8-1,3.5-1.1,5.2c-0.2,4.9,1.9,11.6,2.2,18.4
				c0.3,8-0.2,15.6-0.4,22.8c-0.5,16.9,0.8,35.8,1.8,51.9c0.2,3.1,1,6.3,1.1,9.2c0.1,2.7-0.8,5.3-0.7,7.7c0.1,4.5,1.9,7-2.5,8.9
				c-0.2,1.7-1.2,2.4-2.2,3.3c-10.4,1.2-23.7,0.8-32.8,0.4c-1.2-12.2-0.4-26.4-0.4-40.5c0-14.2-0.9-28.5-0.4-40.9
				c0.1-2.2,0-1.6,1.1-3.3c0.3-1.6-1.8-0.8-1.1-2.9c0.4-15.8,0.4-31.6,0.4-49c0-5.5,0.6-14-1.1-15.5c-2.2-1.9-13.2-0.2-17,0
				c-7.4,0.4-14.5,0.2-21.7-0.4c-1.2-5.1,0.7-15.2,0-26.1c-0.3-4-3-15.9,2.2-17.3c4.7-1.3,10.1,1.3,14.4,1.5
				c4.7,0.1,10-0.5,15.5-0.4C726.3,304.1,753.5,302.4,774.3,306.3"/>
			<path class="st0" d="M561,402c0.1-0.5,0.6-0.6,0.7-1.1c-0.5-0.4-1.5-1.3-1.8,0C560.6,401,560.2,402.1,561,402 M559.2,379.5
				c1.5,0.2,0.7-2,2.5-1.5c-0.1-1-0.9-1.2-1.8-1.5C560.2,378.1,559.2,378.4,559.2,379.5 M560.3,375.9c1.1,0.2,1.6-0.3,1.4-1.5h-1.1
				C560.7,375.1,560.3,375.2,560.3,375.9 M564.3,440c-1.8-0.1-2.9,0.5-3.2,1.9C562.9,442,564.1,441.5,564.3,440 M567.9,390.2
				c0.4-0.4,1-0.6,0.7-1.8c-0.9,0-1.7-0.1-2.2,0.4C566.5,389.7,567,390.2,567.9,390.2 M572.6,460.6c0.4,0,0.9-0.1,0.7-0.7
				c-2.2-0.5-0.5,3-2.5,2.6c1.1-1.6,0.2-1.8-0.4-3.3c1.2-1.2,3.2-1.7,3.6-3.7c-1.6,1-2.3-0.8-3.3,0c0.5,0,0.5,1,0,1.1
				c-0.5-0.5-0.7-1.5-2.2-1.1c-0.4,1,0.7,2.2,0,2.2c-3.3,0.4-4.6,2.6-7.2,3.7c-0.2,1.4,0.6,1.6,0.4,2.9c2.3,2.9,8.6,0.5,10.8,1.9
				C571.5,463.4,574.3,462.8,572.6,460.6 M572.2,370c0.2,0.9,2,1.1,1.8-0.4C573.5,369.8,572.2,369.2,572.2,370 M580.5,484.2
				c-0.6,1.1,1.8,1,1.8,0.4C581.6,484.3,581.2,483.5,580.5,484.2 M580.9,354.9c-0.3,1.6,2.4,1.4,1.8-0.4
				C581.7,354.2,581.8,355,580.9,354.9 M584.8,394.7c-1.4,0.1-1.6-1.1-1.4-2.6c-0.8-0.8-2.4-0.8-3.3-1.5c0.5,3.4,2.4,4,3.6,5.9
				C584.7,396.5,584.3,395.1,584.8,394.7 M585.2,446.2c-1.4-0.2-1.6,0.8-1.8,1.8C584.8,448.3,585,447.2,585.2,446.2 M586.3,489.7
				c0.3-1.3-0.3-1.6-1.1-1.8C584.5,488.5,584.8,490.1,586.3,489.7 M587.7,488.6c1.7,0,2.5-1.2,1.8-2.6
				C587.9,485.8,587.6,486.9,587.7,488.6 M591.7,398c-1.4-0.2-1.9,0.5-2.2,1.5C590.6,399.9,591.7,399.5,591.7,398 M591.7,402.8v-1.1
				c-0.6,0-1.1,0.1-1.5,0.4C589.9,403.1,591.1,402.7,591.7,402.8 M589.9,470.9c1.8,0.2,1.8-1.3,1.8-2.9c-1-0.8-3.2-0.3-3.6,0.7
				C589.9,468.2,590.1,469.3,589.9,470.9 M594.2,467.2c-0.8-0.8-2.3-0.1-2.2,1.1C593.3,468.5,593.9,468,594.2,467.2 M592.8,373.3
				c0.8,0.6,3.1,0.7,2.5-1.1C594.5,371.5,592.7,372,592.8,373.3 M597.1,468.7c-0.4-0.7-0.6-1.5-1.4-1.8c-0.1,0.3-0.3,0.4-0.7,0.4
				c1.1,1.7-0.7,2-1.5,2.9C594.6,471.6,596.8,470.3,597.1,468.7 M600,479c-0.5-1.8,0.9-1.8,0.7-3.3c-2.1,0.9-2.9,3.2-4.7,4.4
				C597.6,480.9,598.6,479.5,600,479 M602.2,358.2c0.7-0.2,2.2,0.5,1.8-0.7h-1.8V358.2z M612.3,328.4c0.1-0.9-0.7-0.8-0.4-1.8
				c-1.4-0.2-1.6,0.8-1.8,1.8C610.8,329.1,611.4,328.5,612.3,328.4 M615.9,325.8c-0.9-0.1-1.5,0.2-1.8,0.7
				C614.8,327.4,615.8,327.2,615.9,325.8 M626,355.2c-0.4-5.2-0.6-11.8-0.4-16.6c-9.1-0.4-20.8-1.9-27.8,1.5
				c0.9,4.8-0.9,10.2,0.7,14.4C607,354.5,616.7,357.1,626,355.2 M630.7,382.9c1,0.1,2,0,1.8-1.1c-0.7,0.1-0.8-0.4-1.5-0.4
				C630.9,381.9,630.5,382.1,630.7,382.9 M641.2,382.9c-1.9-0.4-2.8,2-2.5,2.6C639.4,384.5,641.1,384.5,641.2,382.9 M662.8,305.2
				c1.6,30,1.9,59.8,0.3,90.2c-6.8,0.8-15.4,1.9-22,0.8c-1-0.2-3.4,0.8-3.3-1.1c-6.7,2-15.9,0.4-24.2,0c-4.2-0.2-8.2,0.6-11.9,0.7
				c-2.8,15-0.8,32.9,0,50.1c0.8,17.7-0.5,35.1-1.5,50.8c-12.1,2.5-28.5-0.3-41.9,0.8c-0.2-5.5,0.2-11.5,0-17.3
				c-0.2-5.6-1.9-10.9-1.8-15.1c0.1-4.1,1.9-9.2,2.2-14.4c0.7-15.2,0-32.2-0.7-48.6c-0.7-15.7-1.1-32.6-0.7-48.2
				c0.1-5.4-0.1-11,0.7-15.5c0.3-1.5-0.8-2.5,1.8-2.9c-0.3-1.1-2.5-0.5-1.8-2.6c0.7-9-0.2-19.4-2.2-26.9c0-0.5-0.1-1,0.4-1.1
				C592.5,305,627.6,304.4,662.8,305.2"/>
			<path class="st0" d="M459.3,380.7c1.8-0.4,3.2-1.1,2.9-3.7C459.7,376.6,459.7,378.9,459.3,380.7 M487.8,395.4
				c-0.8-0.1-1.4,0.1-1.4,0.7c0.9,0,0.7,1.2,0.7,2.2c1.1-0.1,1.8-0.6,2.2-1.5C488.8,396.4,487.4,396.9,487.8,395.4 M494.7,376.2
				c1,1,2.8,0.8,2.5-1.5C495.9,374.8,494.7,375,494.7,376.2 M499,391c1.4-0.5,2,0.4,2.9-0.8c-0.2-0.5-1.4,0-1.4-0.7
				c0-0.6,0-1.3-0.7-1.1C499.5,389.2,499,389.8,499,391 M499.4,393.2c-0.2,1.6,3.4,2.4,2.9,0C501.1,392.7,501,393.4,499.4,393.2
				 M505.5,387.7c-1.4-1.7-2.9,0.3-4,1.1c1.1,0.3,0.5,2.4,2.1,2.2C504.8,390.4,505.4,389.3,505.5,387.7 M503.7,385.1
				c0.7,0.6,3,0.5,3.3-0.4c-1-0.3-1.5-1.2-2.9-1.1C503.9,384.1,503.5,384.3,503.7,385.1 M509.1,392.4c0.1-1-0.5-1.2-1.4-1.1
				C507.3,392.6,508.2,392.5,509.1,392.4 M522.8,403.1c0.5,0.8,2.8,0.4,2.5-0.7C524.5,402.1,522.9,401.7,522.8,403.1 M526.1,380.7
				c-0.4,1.6,2.9,1.5,2.9,0.4C528.3,380.6,527,379.8,526.1,380.7 M534.8,333.9c-0.3,1.4,2.3,0.8,1.8-0.4
				C535.7,333.4,535.2,333.6,534.8,333.9 M540.9,482.7c0-0.6,0.1-1.1,0.4-1.5c-0.9-0.8-2.4,0-2.2,1.5
				C539.8,483.4,539.7,482.5,540.9,482.7 M542,388.8c0.5-0.5,0.6-2.2-0.4-2.2c-0.5,0.6-1.3,0.9-1.1,2.2H542z M540.9,386.2
				c1.7-0.7,3.3-1.5,3.6-3.7C542.6,382.9,540.7,384.9,540.9,386.2 M548.8,345.3c-0.8,7.5,2.1,15.7,1.1,23.6
				c-0.6,5-0.7,14.1-0.7,20.6c0,7.8,1.8,14.6,0,22.1c-0.5,2.1-1.8,4-2.2,6.2c-1.3,9.1,1.3,18.3,1.8,27.6c0.5,10.1,0,20.5-0.3,30.2
				c-0.1,2.4,0.3,5.7-2.2,7c-1.7-0.6,0.6-2.4-1.4-3.3c-1,1.4,0.4,3-0.4,4.4c1.3,0.9,3.1-0.9,4-0.4c0.1,5,0.4,9.3-0.4,14
				c-10.7,1.8-22.8,0.1-32.3,1.5c-2.3-2.8-2.4-7.1-2.5-11c-0.3-17.1,1.6-39.5,1.1-56.9c-2,4-5,13.1-7.3,17c-3.3,0.2-4.9,0.1-8.4,0.1
				c-2.4-4.6-3.5-10.7-5.8-15.5c-2.1,19.8-1.6,42.3-2.2,63.7c-10.2-0.7-23.3,0.5-34.6-1.5c-6.3-21.8-3.3-47.6-2.2-73.3
				c1.7-39.1,0.1-80.1-0.7-115.6c9-3,24.1-0.3,36.1-0.7c1.5,8.6,5.6,16.1,7.6,24.3c1.1,4.6,1.8,9.4,5,12.5
				c4.4-13.3,10.6-24.9,15.9-37.2c12.2-0.5,23.5-0.5,34.3,0C551.4,318.8,550.2,331.9,548.8,345.3"/>
			<path class="st0" d="M371.9,451c-1.5-1.1-3,1.3-2.5,2.2C371.2,453.5,371.5,452.1,371.9,451 M370.8,449.5c1.2,0.1,2.3,0.9,2.2-1.1
				C371.8,448.3,371.5,449.1,370.8,449.5 M414.1,322.5c1.9,0.2,1.6-2,3.2-2.2C415.8,320.5,414.4,320.9,414.1,322.5 M448.4,445.9
				c0.3,13.9-1.5,29.6-1.1,43.8c-30,0.9-61.5,0.1-92,0.4c-1.4-32.5-4.7-68.5-4.7-103.5c0-11.6,1.7-23.4,1.1-34.6
				c-0.8-12.9-2.9-26.4-2.5-40.5c0-1.5,0.3-4.2,1.1-5.2c28-1.5,63.5-0.8,92.4-0.4c3.3,11.2,2.9,26.2,4.3,39.4
				c-20.4-1-40.9,1-60.6,1.8c-2,7.1,0.4,18.3-0.7,27.3c11.8,4,28.9,2.6,40.1,7.4c0.1,10,0.3,22.4,0,32.4c-12.1,0.9-27,1.9-40.8,2.2
				c0.4,11.6,1.3,22.3,0.7,33.2C407.3,453.4,429.5,447.2,448.4,445.9"/>
			<path class="st0" d="M274.4,476.8c0.8-0.1,1.7-0.3,1.4-1.5C274.8,475.1,274.3,475.6,274.4,476.8 M281.7,489.7v-1.9
				c-1.5-0.1-2.2,1.9-1.8,2.6C280.8,490.5,281,489.8,281.7,489.7 M284.5,471.2c-0.3-2.6-1.5-0.1-3.2-1.1c-0.5,0.5-0.4,1.6-0.4,2.6
				C282.8,472.9,283.2,471.6,284.5,471.2 M291,460.2h15.2c-2.6-38.3-6.4-71.1-5.1-112.7c-2.8-1.2-7.4-0.6-11.2-0.8
				c-0.4,0.1-0.4,0.6-0.4,1.1C290.9,384.4,290.3,423.8,291,460.2 M330.4,446.2c1.3,0.1,1.9-0.5,1.8-1.9
				C330.6,443.4,329.4,444.6,330.4,446.2 M343.7,352.7c0.4,10.3,2.3,23,1.5,34.2c-0.2,3-1,5.8-1.1,8.5c0,3.2,0.7,6.5,0.7,9.6
				c0,10.5-1.1,20.5-1.1,30.2c0,7.2,0.8,14.6,1.1,21.4c0.1,2.8-0.5,6.3-0.4,9.9c0.2,4.5,1.1,9.2,0.7,11.8c-0.9,5-6.6,9.7-10.1,12.9
				c-4.4,4-9,7.4-12.6,10.3h-86.3c-3.2-5.6-4-14.6-4-24.7c0-3.5-0.8-7.4,1.1-10c1.4-1.3,0.6,1.8,1.8,1.9c0.9-1.5,2.2-0.4,3.2-1.9
				c-0.8-2.3-4.4-2.8-5.8-3.3c-0.3-4,2.1-1.1,3.6-2.6c0.7-2-1.6-0.9-1.1-2.6c4.3,0.8,9.1,1,14.1,1.1c0.8-19.9-0.1-41.2,0.4-62.2
				c-0.1-1.5,2.5-0.4,3.6-0.7c-1.1-2,0-1.3,0.4-3.3c-2.1,0-1.1,3.1-4,2.2c0.8-18.7-1.3-33,0.4-50.1c-5.1-1.2-12.2,1.2-17-0.7
				c1-11.9,0.7-26.4,0.4-37.6c28.5-1.5,61.4,1.5,87.4-2.6c4.5,3.1,8.7,6.9,13.4,12.1c2.7,3,8.4,9.4,9,12.5
				C344.2,334.6,343.4,343.5,343.7,352.7"/>
			<path class="st0" d="M139.8,429.6c-1.3,0.4-0.6-1.6-0.4-1.8c-0.8-0.6-1.1-0.8-2.2-0.4c-0.1,0.9,0.1,1.4,0.4,1.8
				c-1.6,0.1-1.4,2-2.5,2.6c0.2,0,0.4,0.1,0.4,0.4c0.4,0,0.4,0.3,0.7,0.4C136.5,430.7,138.7,430.8,139.8,429.6 M146.6,446.6
				c0-0.9-1.3-0.6-1.8-1.1c0.3,1.3-0.6,1.4-0.4,2.6C145.6,448,146.6,447.8,146.6,446.6 M145.9,440c-0.3-2-1.1-7,1.4-8.1
				c-1.1-2.8-6.6-4-7.2-0.4c-1.3,0.1-2.8,0-2.9,1.5c2.1,0.8,5.6-1.1,6.9,1.1c-0.5,0.7-0.7,1.8-1.1,2.6c0.2,0.7,2.1-0.2,1.8,1.1
				c-0.6,1.4-2.1,1.8-2.5,3.3C143.1,441.6,145.6,441.2,145.9,440 M158.5,423.8c0.6,1.1,2.5,2.9,3.2,0.7
				C160.9,424.1,159.3,422,158.5,423.8 M164.7,428.2c-0.4-0.2-3-0.3-3.2,0.7C162.5,429.4,164.2,429.3,164.7,428.2 M172.2,388.8
				c1.7,0.6,2-2.1,0.4-1.9C172.3,387.4,172.1,387.9,172.2,388.8 M178.8,392.5c0.5-1.2,0.4-3.1-0.7-3.7c-0.3,2-1.9,1.3-3.6,1.1
				C173.8,392.9,176.4,392.5,178.8,392.5 M180.6,414.9c1.3,0.1,1.9-0.5,1.8-1.8c-0.9-0.8-2.7-0.3-2.5,1.1
				C180.2,414.3,180.4,414.6,180.6,414.9 M193.9,412c0-0.5-0.5-0.5-0.4-1.1c-2.2-0.3-3.1,0.7-4.3,1.5c-0.3,2.1,0.6,3.5,0,4.8
				c1.1,0.3,1.3-0.4,2.2-0.4c0.2-1.4,0.3-1.5-0.4-2.6C192.3,413.8,193.5,413.3,193.9,412 M195.7,409c0.1-0.7,0.8-0.9,0.7-1.9
				c-1.3,0.9-4.9-0.6-4.3,2.2C193.9,409.7,194.2,408.1,195.7,409 M204.4,408.3c2.7,0.1,1.1-2.1,1.4-4.4c-4.1-0.7-6.3,0.7-7.9,2.6
				c1,0.5,0.9,2,1.8,2.6c0.2,1.4-2.5-0.1-2.2,1.5c2,0,6.4-0.2,4.3-3c2.2,0.7,1.5-1.6,3.6-1.1C205.4,407.3,204.2,407.1,204.4,408.3
				 M228.2,462.8c0,11.3,0.4,23.5,0,34.2c-30.2-0.4-63.1,1.4-92.4-0.4c-2.8-19.5-4-43.6-2.5-65.2c0.3-1.2,1.4-1.5,2.2-2.2
				c0.5-2.6-1.9-2.2-2.2-4c1.1-38.6-0.8-72.9-1.1-109.4c1.4-2,1.6-5.2,2.9-7.4c19.7-0.3,41.9,0.5,61.4-0.4c11-0.5,21.8-0.3,30,4
				c-0.4,10.9,0.9,21,0,31.3c-1.1,0.5-1.5,1.7-2.2,2.6c-19.2-2.8-39.3-2.9-58.5,0c0.5,12.4,0.3,23.2,1.4,34.6
				c12.9,0.6,28-1.6,40.8-1.1c-0.5,6,0.9,12.4,0.4,20.3c-1.9,0.8-3.1-1.2-4,1.1c1.3,1.2,2.7,2.4,4,3.7c-0.6,4.4-0.6,9.7-0.7,13.6
				c-6.5,1.3-9-0.8-11.5-4.4c-1,0.6,0.2,3.4-0.7,4.1c-1.9,1.5-5.7,1.1-9,1.1c-1.8-0.7,2.9-2.5,1.1-4.4c-1.2-0.3-2.1,2.7-4,3
				c-2.1,0.4-1.7-1.7-4-1.1c-1.3,1.8,2.8,0.7,2.9,2.2c-4.1,0.6-8.6,0.8-13.4,0.7c-0.5,1.5-1.1,2.8-1.8,4c2.7,2.2,0.4,7.2-0.7,9.6
				c-0.5,1.7,1.8,0.6,2.2,1.5c1.4,9-0.3,17.6,0,28.4L228.2,462.8L228.2,462.8z"/>
			<path class="st0" d="M32.6,418.6c-0.1,3.7,4.6-0.4,1.8-1.5C33.8,418.2,34.8,418.9,32.6,418.6 M36.5,423.4
				c1.4-0.9,2.3,1.5,3.3-0.4c-1.4-0.1-1.7-1.2-2.9-1.5C37,422.4,36.2,422.4,36.5,423.4 M43,380.3c1.5,0.4,1.5-0.9,1.4-2.2h-1.1
				C42.9,379,42.6,379.2,43,380.3 M46.3,412c-0.2-0.9-0.5-1.7-1.5-1.9C44.7,411.3,45.2,411.9,46.3,412 M75.9,329.1V328
				c-0.6,0-1.1,0.1-1.4,0.4C74.1,329.5,75.2,329,75.9,329.1 M89.6,350.1c-0.4-4.8-0.3-8.5,0-12.9c-10.2,0.1-18.7,0.5-29.6,0.4
				c0.2,4.5,0.7,8.9,0,13.2C69.8,349.7,79.7,351,89.6,350.1 M105.1,428.9c1.8,0.3,1.8-1,3.6-0.7
				C108.5,426.7,104.9,427.6,105.1,428.9 M106.2,434.5c1.5-0.5,3.6-0.5,3.2-3c-0.7,0.1-0.8-0.4-1.4-0.4
				C107.2,432,106.8,433.4,106.2,434.5 M109.1,342.7c0-1.6,2.2-2.2,1.4-3.3c-1.3-0.1-2.3,0.1-3.2,0.4
				C107.1,341.8,106.6,342.9,109.1,342.7 M113.4,466.1c0.2-1.2-0.3-1.7-1.4-1.5C111.8,466.2,112.2,466.7,113.4,466.1 M115.6,465
				c0.3-1.8-0.7-2.1-1.8-1.5C113.7,464.7,115.1,464.4,115.6,465 M126.4,312.9c-2.7,23.1-0.4,46.1-1.1,70.7c-6.1,1.6-14.1,1.3-20.2,3
				c7.1,35.8,14.6,71.1,19.8,108.6c-4.8-0.7-12.2,0.9-16.6,0c-1.2-0.3-2-0.3-2.5-1.5c-1.8-0.6-0.8,1.6-2.2,1.5
				c-2.2-0.4-1.8-1.8-3.6-1.9c-2.3-0.1-2.8,2.4-5.4,2.2c-2.5-3.7-2.2-8.6-3.2-12.9c-5.9-23-12.1-45.7-15.2-71.5
				c-4.5-6.2-5.1-16.5-7.2-25c-2.8,0.2-6.5-0.4-8.7,0.4c-0.7,8.8,0.3,17.6,0.7,26.5c0.5,9.3-0.6,18.5,0,27.2
				c0.4,5.7,2.5,11.1,2.2,16.6c-0.3,4-3,7.7-3.6,12.1c-1.1,8.5,1.9,16.4,1.4,24.7c-12.5,1.2-24.8-0.4-35.7,0.4
				c1-31.4,2.7-63.7,0.7-95.4c-0.9-15-4.1-29.8-2.9-46.8c0.2-2.2,0.9-4.4,1.1-6.6c1-13.5-2-28.2,2.2-40.1
				c30.7,0.9,64.4-1.8,93.9-0.4C122.8,307,124.5,310.1,126.4,312.9"/>
		</g>
		<g>
			<g>
				<g>
					<g>
						<g>
							<path class="st0" d="M1061,310.8c1.6,0,2.4,0.7,2.4,2c0,1.1-0.6,1.7-1.8,1.9l2,3.1h-1.2l-1.9-3h-1.2v3h-1.1v-7L1061,310.8
								L1061,310.8z M1060.5,313.9c0.7,0,1.1-0.1,1.4-0.3c0.2-0.2,0.4-0.5,0.4-0.9c0-0.7-0.5-1.1-1.5-1.1h-1.5v2.2L1060.5,313.9
								L1060.5,313.9z"/>
						</g>
					</g>
					<path class="st0" d="M1060.5,320.3c-3.3,0-6-2.7-6-6s2.7-6,6-6c3.3,0,6,2.7,6,6S1063.8,320.3,1060.5,320.3z M1060.5,309.2
						c-2.8,0-5.1,2.3-5.1,5.1s2.3,5.1,5.1,5.1c2.8,0,5.1-2.3,5.1-5.1S1063.3,309.2,1060.5,309.2z"/>
				</g>
			</g>
			<g>
				<g>
					<g>
						<g>
							<path class="st0" d="M1061,310.8c1.6,0,2.4,0.7,2.4,2c0,1.1-0.6,1.7-1.8,1.9l2,3.1h-1.2l-1.9-3h-1.2v3h-1.1v-7L1061,310.8
								L1061,310.8z M1060.5,313.9c0.7,0,1.1-0.1,1.4-0.3c0.2-0.2,0.4-0.5,0.4-0.9c0-0.7-0.5-1.1-1.5-1.1h-1.5v2.2L1060.5,313.9
								L1060.5,313.9z"/>
						</g>
					</g>
					<path class="st0" d="M1060.5,320.3c-3.3,0-6-2.7-6-6s2.7-6,6-6c3.3,0,6,2.7,6,6S1063.8,320.3,1060.5,320.3z M1060.5,309.2
						c-2.8,0-5.1,2.3-5.1,5.1s2.3,5.1,5.1,5.1c2.8,0,5.1-2.3,5.1-5.1S1063.3,309.2,1060.5,309.2z"/>
				</g>
			</g>
		</g>
	</g>
</g>
<g id="Guides">
</g>
</svg>
