<svg width="60" height="64" viewBox="0 0 60 64" fill="none" xmlns="http://www.w3.org/2000/svg">
<g filter="url(#filter0_d_1_105)">
<circle cx="32" cy="27" r="20" fill="white"/>
<path d="M38.7662 21.2337C38.3753 20.8426 37.9111 20.5323 37.4002 20.3206C36.8893 20.109 36.3417 20 35.7887 20C35.2357 20 34.6881 20.109 34.1772 20.3206C33.6663 20.5323 33.2021 20.8426 32.8112 21.2337L31.9998 22.0451L31.1884 21.2337C30.3987 20.4441 29.3277 20.0004 28.2109 20.0004C27.0941 20.0004 26.023 20.4441 25.2333 21.2337C24.4436 22.0234 24 23.0945 24 24.2113C24 25.3281 24.4436 26.3991 25.2333 27.1888L26.0447 28.0002L31.9998 33.9553L37.9549 28.0002L38.7662 27.1888C39.1574 26.7979 39.4677 26.3337 39.6794 25.8228C39.891 25.3119 40 24.7643 40 24.2113C40 23.6583 39.891 23.1107 39.6794 22.5998C39.4677 22.0889 39.1574 21.6247 38.7662 21.2337V21.2337Z" stroke="#4A4A4A" stroke-width="2" stroke-linecap="round" stroke-linejoin="round"/>
</g>
<defs>
<filter id="filter0_d_1_105" x="0" y="0" width="64" height="64" filterUnits="userSpaceOnUse" color-interpolation-filters="sRGB">
<feFlood flood-opacity="0" result="BackgroundImageFix"/>
<feColorMatrix in="SourceAlpha" type="matrix" values="0 0 0 0 0 0 0 0 0 0 0 0 0 0 0 0 0 0 127 0" result="hardAlpha"/>
<feOffset dy="5"/>
<feGaussianBlur stdDeviation="6"/>
<feComposite in2="hardAlpha" operator="out"/>
<feColorMatrix type="matrix" values="0 0 0 0 0 0 0 0 0 0 0 0 0 0 0 0 0 0 0.1 0"/>
<feBlend mode="normal" in2="BackgroundImageFix" result="effect1_dropShadow_1_105"/>
<feBlend mode="normal" in="SourceGraphic" in2="effect1_dropShadow_1_105" result="shape"/>
</filter>
</defs>
</svg>
